<?xml version="1.0" encoding="utf-8"?>
<!-- Generator: Adobe Illustrator 25.4.1, SVG Export Plug-In . SVG Version: 6.00 Build 0)  -->
<svg version="1.1" xmlns="http://www.w3.org/2000/svg" xmlns:xlink="http://www.w3.org/1999/xlink" x="0px" y="0px"
	 viewBox="0 0 117 117" style="enable-background:new 0 0 117 117;" xml:space="preserve">
<style type="text/css">
	.st0{fill:#67DD72;}
	.st1{fill:#FFFFFF;}
</style>
<g id="fondo">
	<g>
		<circle class="st0" cx="58.5" cy="58.5" r="50"/>
	</g>
</g>
<g id="icon">
	<g>
		<path class="st1" d="M68.6,46.3c0.5-0.5,1.2-0.8,1.9-0.8c0.7,0,1.4,0.3,1.9,0.9c0.5,0.5,0.8,1.3,0.8,2.1S73,50,72.5,50.6l-14.3,20
			c-0.2,0.3-0.5,0.5-0.9,0.7c-0.3,0.2-0.7,0.3-1,0.3c-0.4,0-0.7-0.1-1.1-0.2c-0.3-0.2-0.6-0.4-0.9-0.7L44.8,60
			c-0.3-0.3-0.5-0.6-0.6-1S44,58.2,44,57.8s0.1-0.8,0.2-1.2c0.1-0.4,0.3-0.7,0.6-1s0.6-0.5,0.9-0.7c0.3-0.2,0.7-0.2,1.1-0.2
			c0.4,0,0.7,0.1,1,0.3s0.6,0.4,0.9,0.7l7.5,8.4L68.6,46.3C68.5,46.4,68.5,46.4,68.6,46.3L68.6,46.3z"/>
	</g>
	<g>
		<path class="st1" d="M58.5,88.4C42,88.4,28.6,75,28.6,58.5C28.6,42,42,28.6,58.5,28.6C75,28.6,88.4,42,88.4,58.5
			C88.4,75,75,88.4,58.5,88.4z M58.5,32.6c-14.3,0-25.9,11.6-25.9,25.9s11.6,25.9,25.9,25.9s25.9-11.6,25.9-25.9
			S72.8,32.6,58.5,32.6z"/>
	</g>
</g>
</svg>
