<?xml version="1.0" encoding="utf-8"?>
<!-- Generator: Adobe Illustrator 25.4.1, SVG Export Plug-In . SVG Version: 6.00 Build 0)  -->
<svg version="1.1" xmlns="http://www.w3.org/2000/svg" xmlns:xlink="http://www.w3.org/1999/xlink" x="0px" y="0px"
	 viewBox="0 0 117 117" style="enable-background:new 0 0 117 117;" xml:space="preserve">
<style type="text/css">
	.st0{fill:#FF664A;}
	.st1{fill:#FFFFFF;}
</style>
<g id="fondo">
	<g>
		<circle class="st0" cx="58.5" cy="58.5" r="50"/>
	</g>
</g>
<g id="icon">
	<path class="st1" d="M74.7,38.3c0-1.4,0.5-2.8,1.4-3.9c0.9-1,2.1-1.6,3.4-1.6s2.5,0.6,3.4,1.6s1.4,2.4,1.4,3.9v40
		c0,1.4-0.5,2.8-1.4,3.9c-0.9,1-2.1,1.6-3.4,1.6s-2.5-0.6-3.4-1.6s-1.4-2.4-1.4-3.9V38.3z M71.4,41c-6.7,3.5-14.7,5.4-22.6,6v22.7
		c1.2,0.1,2.3,0.2,3.5,0.3c6.6,0.7,13,2.4,19.1,5.7V41z M45.6,69.5V47.2c-2.2,0.1-4.5,0.2-6.5,0.2c-1.7,0-3.3,0.8-4.5,2.2
		s-1.9,3.2-1.9,5.1V62c0,4,2.9,7.3,6.4,7.3c0.5,0,1.1,0,1.6,0C42.3,69.3,43.9,69.4,45.6,69.5z M50.1,73.4c0.9,0.1,1.8,0.2,2.7,0.3
		l0.8,6.1c0.1,0.5,0.1,1.1,0,1.6s-0.3,1-0.6,1.4s-0.7,0.7-1.1,1c-0.4,0.2-0.9,0.3-1.4,0.3h-1.8c-0.6,0-1.2-0.2-1.8-0.6
		c-0.5-0.4-0.9-0.9-1.2-1.6l-4.2-9c1.8,0.1,3.6,0.1,5.5,0.2C48,73.2,49,73.3,50.1,73.4z"/>
</g>
</svg>
