<svg width="117" height="117" viewBox="0 0 117 117" fill="none" xmlns="http://www.w3.org/2000/svg">
<g filter="url(#filter0_d)">
<circle cx="61.0242" cy="54.3926" r="50.0242" fill="#FF664A"/>
</g>
<path d="M77.365 35.1633C77.365 33.7181 77.8756 32.3321 78.7847 31.3102C79.6937 30.2882 80.9266 29.7141 82.2121 29.7141C83.4976 29.7141 84.7305 30.2882 85.6395 31.3102C86.5485 32.3321 87.0592 33.7181 87.0592 35.1633V75.1244C87.0592 76.5696 86.5485 77.9557 85.6395 78.9776C84.7305 79.9995 83.4976 80.5737 82.2121 80.5737C80.9266 80.5737 79.6937 79.9995 78.7847 78.9776C77.8756 77.9557 77.365 76.5696 77.365 75.1244V35.1633ZM74.1336 37.7935C67.4542 41.2447 59.4662 43.1737 51.5136 43.8095V66.4674C52.6874 66.5418 53.8596 66.6448 55.0294 66.7762C61.6635 67.5173 68.0779 69.2029 74.1336 72.4434V37.7935ZM48.2822 66.2785V44.0056C46.0849 44.1037 43.7615 44.1619 41.7935 44.1982C40.082 44.2248 38.4482 45.0063 37.2442 46.3741C36.0402 47.7419 35.3623 49.5867 35.3566 51.5111V58.7767C35.3566 62.7946 38.2519 66.0278 41.8 66.0751C42.3343 66.0826 42.8686 66.0922 43.4028 66.1041C45.0298 66.1407 46.6564 66.1988 48.2822 66.2785ZM52.7739 70.2056C53.6948 70.2819 54.6126 70.3763 55.5206 70.4889L56.3381 76.6284C56.4271 77.1538 56.4118 77.6948 56.2933 78.2128C56.1747 78.7308 55.956 79.2129 55.6525 79.6248C55.3491 80.0368 54.9685 80.3683 54.5379 80.5957C54.1073 80.8232 53.6374 80.9409 53.1617 80.9406H51.3909C50.7627 80.9405 50.1482 80.7347 49.6226 80.3482C49.0969 79.9617 48.6827 79.4114 48.4309 78.7645L44.1848 69.7551C46.0081 69.8062 47.8308 69.8838 49.6523 69.9876C50.709 70.0494 51.7528 70.122 52.7739 70.2056Z" fill="white"/>
<defs>
<filter id="filter0_d" x="0" y="0.368408" width="116.048" height="116.048" filterUnits="userSpaceOnUse" color-interpolation-filters="sRGB">
<feFlood flood-opacity="0" result="BackgroundImageFix"/>
<feColorMatrix in="SourceAlpha" type="matrix" values="0 0 0 0 0 0 0 0 0 0 0 0 0 0 0 0 0 0 127 0" result="hardAlpha"/>
<feOffset dx="-3" dy="4"/>
<feGaussianBlur stdDeviation="4"/>
<feComposite in2="hardAlpha" operator="out"/>
<feColorMatrix type="matrix" values="0 0 0 0 0 0 0 0 0 0 0 0 0 0 0 0 0 0 0.15 0"/>
<feBlend mode="normal" in2="BackgroundImageFix" result="effect1_dropShadow"/>
<feBlend mode="normal" in="SourceGraphic" in2="effect1_dropShadow" result="shape"/>
</filter>
</defs>
</svg>
