<?xml version="1.0" encoding="utf-8"?>
<!-- Generator: Adobe Illustrator 25.4.1, SVG Export Plug-In . SVG Version: 6.00 Build 0)  -->
<svg version="1.1" xmlns="http://www.w3.org/2000/svg" xmlns:xlink="http://www.w3.org/1999/xlink" x="0px" y="0px"
	 viewBox="0 0 117 117" style="enable-background:new 0 0 117 117;" xml:space="preserve">
<style type="text/css">
	.st0{fill:#F8AE05;}
	.st1{fill:#FFFFFF;}
</style>
<g id="fondo">
	<g>
		<circle class="st0" cx="58.5" cy="58.5" r="50"/>
	</g>
</g>
<g id="icon">
	<path class="st1" d="M58.5,91.7c2,0,3.8-0.9,5.2-2.4c1.4-1.6,2.2-3.7,2.2-5.9H51.1c0,2.2,0.8,4.3,2.2,5.9
		C54.7,90.8,56.5,91.7,58.5,91.7z M62.2,29.9c0.1-0.6,0-1.2-0.2-1.7s-0.4-1.1-0.8-1.5c-0.3-0.4-0.8-0.8-1.2-1
		c-0.5-0.2-1-0.4-1.5-0.4s-1,0.1-1.5,0.4c-0.5,0.2-0.9,0.6-1.2,1s-0.6,0.9-0.8,1.5s-0.2,1.1-0.2,1.7c-4.2,1-7.9,3.5-10.6,7.2
		c-2.7,3.7-4.2,8.3-4.2,13.1c0,4.6-1.8,24.9-7.4,29h51.8c-5.5-4.1-7.4-24.5-7.4-29C77,40.2,70.6,31.8,62.2,29.9z"/>
</g>
</svg>
