<svg width="117" height="117" viewBox="0 0 117 117" fill="none" xmlns="http://www.w3.org/2000/svg">
<g filter="url(#filter0_d)">
<circle cx="61.0242" cy="54.7266" r="50.0242" fill="#F8AE05"/>
</g>
<path d="M60.5535 91.6542C62.5149 91.6542 64.3959 90.7808 65.7829 89.2263C67.1698 87.6718 67.9489 85.5634 67.9489 83.365H53.158C53.158 85.5634 53.9372 87.6718 55.3241 89.2263C56.711 90.7808 58.5921 91.6542 60.5535 91.6542ZM64.2327 29.8959C64.2843 29.3196 64.2276 28.7376 64.0662 28.1874C63.9048 27.6372 63.6423 27.131 63.2956 26.7015C62.949 26.272 62.5259 25.9287 62.0535 25.6938C61.5812 25.4588 61.0702 25.3374 60.5535 25.3374C60.0368 25.3374 59.5258 25.4588 59.0534 25.6938C58.5811 25.9287 58.158 26.272 57.8113 26.7015C57.4647 27.131 57.2022 27.6372 57.0408 28.1874C56.8794 28.7376 56.8226 29.3196 56.8743 29.8959C52.6948 30.8488 48.9375 33.3913 46.2387 37.093C43.5399 40.7946 42.0654 45.428 42.0649 50.2084C42.0649 54.7592 40.216 75.0759 34.6694 79.2204H86.4375C80.891 75.0759 79.0421 54.7592 79.0421 50.2084C79.0421 40.1786 72.682 31.8066 64.2327 29.8959Z" fill="white"/>
<defs>
<filter id="filter0_d" x="0" y="0.702393" width="116.048" height="116.048" filterUnits="userSpaceOnUse" color-interpolation-filters="sRGB">
<feFlood flood-opacity="0" result="BackgroundImageFix"/>
<feColorMatrix in="SourceAlpha" type="matrix" values="0 0 0 0 0 0 0 0 0 0 0 0 0 0 0 0 0 0 127 0" result="hardAlpha"/>
<feOffset dx="-3" dy="4"/>
<feGaussianBlur stdDeviation="4"/>
<feComposite in2="hardAlpha" operator="out"/>
<feColorMatrix type="matrix" values="0 0 0 0 0 0 0 0 0 0 0 0 0 0 0 0 0 0 0.15 0"/>
<feBlend mode="normal" in2="BackgroundImageFix" result="effect1_dropShadow"/>
<feBlend mode="normal" in="SourceGraphic" in2="effect1_dropShadow" result="shape"/>
</filter>
</defs>
</svg>
