<svg width="117" height="117" viewBox="0 0 117 117" fill="none" xmlns="http://www.w3.org/2000/svg">
<g filter="url(#filter0_d)">
<circle cx="61.0242" cy="54.3926" r="50.0242" fill="#67DD72"/>
</g>
<path d="M71.1258 42.5483C71.6305 42.0111 72.302 41.7142 72.9987 41.7201C73.6955 41.726 74.3629 42.0342 74.8602 42.5799C75.3575 43.1255 75.6458 43.8658 75.6642 44.6445C75.6827 45.4232 75.4298 46.1795 74.9589 46.7538L60.6654 66.7399C60.4196 67.0359 60.1229 67.2734 59.7932 67.4383C59.4634 67.6032 59.1073 67.692 58.7461 67.6995C58.385 67.707 58.0261 67.6329 57.6912 67.4818C57.3562 67.3307 57.0518 67.1056 56.7964 66.82L47.3175 56.2222C47.0536 55.9472 46.8418 55.6155 46.695 55.247C46.5481 54.8786 46.4692 54.4808 46.4628 54.0774C46.4565 53.6741 46.5228 53.2735 46.6579 52.8994C46.7931 52.5254 46.9942 52.1856 47.2493 51.9004C47.5045 51.6151 47.8084 51.3902 48.1429 51.2391C48.4775 51.0881 48.8358 51.0139 49.1966 51.021C49.5573 51.0281 49.9131 51.1164 50.2427 51.2806C50.5722 51.4448 50.8689 51.6815 51.1148 51.9766L58.6163 60.3596L71.0578 42.6364C71.0802 42.6055 71.1041 42.5761 71.1294 42.5483H71.1258Z" fill="white"/>
<circle cx="60.8029" cy="54.1713" r="27.8817" stroke="white" stroke-width="4"/>
<defs>
<filter id="filter0_d" x="0" y="0.368408" width="116.048" height="116.048" filterUnits="userSpaceOnUse" color-interpolation-filters="sRGB">
<feFlood flood-opacity="0" result="BackgroundImageFix"/>
<feColorMatrix in="SourceAlpha" type="matrix" values="0 0 0 0 0 0 0 0 0 0 0 0 0 0 0 0 0 0 127 0" result="hardAlpha"/>
<feOffset dx="-3" dy="4"/>
<feGaussianBlur stdDeviation="4"/>
<feComposite in2="hardAlpha" operator="out"/>
<feColorMatrix type="matrix" values="0 0 0 0 0 0 0 0 0 0 0 0 0 0 0 0 0 0 0.15 0"/>
<feBlend mode="normal" in2="BackgroundImageFix" result="effect1_dropShadow"/>
<feBlend mode="normal" in="SourceGraphic" in2="effect1_dropShadow" result="shape"/>
</filter>
</defs>
</svg>
