<svg width="421" height="372" viewBox="0 0 421 372" fill="none" xmlns="http://www.w3.org/2000/svg">
<ellipse cx="234.73" cy="185.676" rx="185.437" ry="185.676" fill="white"/>
<path d="M264.72 168.48C264.72 168.48 248.372 201.374 231.766 224.081C225.159 233.118 218.509 240.541 212.836 243.637C207.281 246.665 202.579 251.372 198.689 256.587C188.611 270.091 183.957 286.997 183.957 286.997L141.489 222.381C141.489 222.381 142.938 159.217 148.036 148.652C155.468 133.256 159.058 102.146 161.912 95.953C164.029 91.3595 170.075 67.6269 170.658 65.8828C170.909 65.1319 172.922 63.9785 175.536 63.9805C177.632 63.9805 181.194 66.0209 182.091 70.21C186.632 91.3855 181.166 105.354 181.227 105.975C182.83 122.251 178.014 134.331 181.391 137.531C181.516 137.649 181.751 137.593 182.081 137.381C187.934 133.6 224.267 80.3222 228.742 79.1728C233.477 77.9593 264.72 168.48 264.72 168.48Z" fill="#FFB27D"/>
<path d="M196.102 270.447C196.102 270.447 195.344 279.232 194.152 292.231C192.321 312.204 189.461 342.131 186.74 365.451C150.23 355.401 118.289 335.077 93.8721 307.938C105.267 287.83 115.437 270.065 122.794 257.257C122.795 257.237 122.815 257.221 122.826 257.201C130.301 244.198 134.869 236.307 134.869 236.307L135.265 236.352C142.923 237.326 150.506 238.819 157.963 240.822C158.369 240.929 158.776 241.043 159.185 241.159L159.741 241.314C172.812 245.032 187.333 251.198 193.305 261.013C193.646 261.575 193.959 262.149 194.243 262.735C194.908 264.096 195.403 265.536 195.715 267.02C195.953 268.147 196.083 269.295 196.102 270.447V270.447Z" fill="#F99746"/>
<path d="M301.831 57.4951L288.602 76.7718L275.61 95.684C274.818 96.6336 273.902 96.9641 272.91 96.8686C269.791 96.5759 265.935 92.1086 262.928 89.6361L262.623 89.3873C260.718 87.813 259.518 85.5539 259.285 83.1036C259.052 80.6532 259.805 78.2108 261.379 76.3099L281.236 52.4705L287.125 45.4012C288.71 43.5092 290.985 42.3172 293.452 42.0856C295.919 41.8539 298.378 42.6015 300.292 44.165L300.597 44.4118C302.501 45.9882 303.7 48.2491 303.931 50.7005C304.162 53.152 303.408 55.5947 301.831 57.4951V57.4951Z" fill="#FFB27D"/>
<path d="M289.367 76.6013L275.763 95.6738C274.934 96.6314 273.975 96.9647 272.936 96.8683L281.654 52.0981C281.673 52.3491 283.155 72.4395 289.367 76.6013Z" fill="#EFA26F"/>
<path d="M231.859 224.258C225.289 233.315 218.678 240.754 213.036 243.857C207.514 246.891 202.838 251.609 198.971 256.835C194.521 254.732 189.448 252.266 184.489 249.823C178.452 246.847 178.22 238.156 184.135 234.935C184.192 234.905 184.248 234.872 184.303 234.84C189.845 231.629 195.522 220.275 195.522 220.275L231.859 224.258Z" fill="#EFA26F"/>
<path d="M170.285 67.636L167.048 80.7439C167.048 80.7439 169.878 81.9045 171.695 81.0031C173.512 80.1017 174.995 68.3458 170.285 67.636Z" fill="#FFC197"/>
<path d="M267.415 41.1301H197.214C188.62 41.1301 181.653 48.0746 181.653 56.6411V215.732C181.653 224.298 188.62 231.243 197.214 231.243H267.415C276.01 231.243 282.977 224.298 282.977 215.732V56.6411C282.977 48.0746 276.01 41.1301 267.415 41.1301Z" fill="#2B478B"/>
<path d="M277.5 55.5375V215.007C277.5 220.418 273.126 224.845 267.788 224.845H196.84C191.504 224.849 187.13 220.422 187.13 215.007V55.5375C187.13 50.1272 191.504 45.7002 196.84 45.7002H267.788C273.128 45.7002 277.5 50.1192 277.5 55.5375Z" fill="#C0D8FB"/>
<path d="M268.372 45.7002L197.796 224.845H196.911C191.536 224.845 187.13 220.418 187.13 215.004V55.5373C187.13 50.1271 191.536 45.7002 196.911 45.7002H268.372Z" fill="#CBE1FD"/>
<path d="M247.217 44.1807H218.326C215.717 44.1807 213.602 46.2263 213.602 48.7497V48.7516C213.602 51.2751 215.717 53.3207 218.326 53.3207H247.217C249.826 53.3207 251.941 51.2751 251.941 48.7516V48.7497C251.941 46.2263 249.826 44.1807 247.217 44.1807Z" fill="#2B478B"/>
<path d="M296.282 130.639L294.293 131.4L280.913 136.509C280.603 136.628 280.287 136.729 279.966 136.812C277.794 137.372 275.494 137.111 273.502 136.078C271.51 135.045 269.965 133.312 269.161 131.209L268.959 130.694C268.107 128.423 268.185 125.906 269.174 123.693C270.163 121.479 271.984 119.749 274.239 118.88L286.712 114.118L287.619 113.771L289.609 113.012C291.868 112.156 294.372 112.234 296.574 113.228C298.776 114.223 300.497 116.053 301.36 118.318L301.562 118.836C302.411 121.105 302.332 123.62 301.343 125.831C300.354 128.042 298.535 129.771 296.282 130.639V130.639Z" fill="#FFB27D"/>
<path d="M285.078 130.763C282.765 131.612 278.544 133.121 276.294 133.431C275.663 133.52 274.484 133.186 273.39 132.03C272.588 131.148 271.991 130.111 271.638 128.989C271.411 128.358 271.251 127.706 271.161 127.044C271.073 126.273 271.1 125.495 271.239 124.731C271.31 124.375 271.468 124.04 271.699 123.753C271.93 123.467 272.227 123.237 272.568 123.082C272.568 123.082 272.568 123.082 272.568 123.082C274.961 121.981 278.185 120.637 281.015 119.889C282.969 119.368 284.948 120.201 285.566 121.85L285.86 122.62L287.353 126.568C287.984 128.198 286.977 130.073 285.078 130.763Z" fill="#FFD3B6"/>
<path d="M285.143 130.89C282.891 131.699 278.784 133.136 276.594 133.432C275.98 133.517 274.832 133.198 273.767 132.097C273.653 131.846 273.548 131.583 273.45 131.299C273.229 130.698 273.073 130.078 272.985 129.447C272.9 128.713 272.925 127.972 273.061 127.245C273.131 126.905 273.284 126.586 273.509 126.313C273.733 126.039 274.023 125.82 274.355 125.672V125.672C276.686 124.622 279.825 123.343 282.578 122.63C283.137 122.473 283.726 122.436 284.302 122.522C284.878 122.608 285.426 122.814 285.906 123.126L287.359 126.887C287.971 128.446 286.991 130.233 285.143 130.89Z" fill="#FFC197"/>
<path d="M289.503 148.934L279.013 151.536C277.476 151.913 275.838 151.72 274.456 151.001C273.074 150.281 272.061 149.092 271.638 147.694L271.317 146.61C270.904 145.209 271.115 143.717 271.906 142.458C272.696 141.199 274.001 140.276 275.536 139.891L286.026 137.29C287.563 136.912 289.201 137.104 290.583 137.824C291.965 138.544 292.978 139.734 293.401 141.132L293.724 142.214C294.138 143.615 293.926 145.108 293.135 146.368C292.344 147.627 291.038 148.55 289.503 148.934V148.934Z" fill="#FFB27D"/>
<path d="M284.459 149.188C282.577 149.737 279.178 150.704 277.396 150.809C276.748 150.848 275.449 150.251 274.604 148.391C274.375 147.888 274.199 147.359 274.078 146.814C273.947 146.278 273.87 145.728 273.85 145.173C273.838 144.527 273.915 143.881 274.078 143.259C274.166 142.962 274.316 142.692 274.518 142.47C274.719 142.249 274.965 142.082 275.237 141.984V141.984C277.187 141.234 279.809 140.335 282.074 139.904C283.639 139.604 285.125 140.424 285.491 141.833L285.756 142.839L286.546 145.863C286.919 147.26 285.995 148.743 284.459 149.188Z" fill="#FFD3B6"/>
<path d="M284.358 149.212C282.391 149.753 278.839 150.705 276.977 150.809C276.301 150.847 274.943 150.259 274.06 148.428C273.937 147.935 273.867 147.429 273.85 146.92C273.836 146.284 273.917 145.649 274.089 145.037C274.18 144.745 274.337 144.478 274.547 144.259C274.757 144.041 275.014 143.876 275.297 143.779V143.779C277.335 143.038 280.075 142.155 282.444 141.731C283.797 141.487 285.095 142 285.719 142.969L286.544 145.946C286.928 147.314 285.962 148.775 284.358 149.212Z" fill="#FFC197"/>
<path d="M122.319 266.521C122.319 266.521 143.416 286.711 157.634 294.504L168.401 286.873V298.13C168.401 298.13 189.578 301.871 196.258 298.13V267.432L136.782 237.641L122.319 266.521Z" fill="#ED7D2B"/>
<path d="M199.909 295.859C191.844 297.532 174.459 291.118 174.459 291.118L177.256 263.704L157.619 286.477C147.622 282.712 131.985 272.88 122.695 266.77C118.07 263.722 115.016 261.599 115.016 261.599C128.127 240.246 141.314 220.275 141.314 220.275C145.184 228.111 154.352 234.917 164.276 240.36C180.778 249.408 199.406 254.695 199.406 254.695C199.4 270.987 199.909 295.859 199.909 295.859Z" fill="#DCEAFF"/>
<path d="M294.823 111.262L294.603 111.338L281.224 114.787C275.345 116.305 269.264 113.107 267.71 107.684L266.912 104.906C265.42 99.6895 268.627 94.2506 274.101 92.4851L278.516 91.3455L287.472 89.0363C293.353 87.5176 299.434 90.7156 300.985 96.1385L301.784 98.9171C303.248 104.055 300.149 109.42 294.823 111.262Z" fill="#FFB27D"/>
<path d="M286.542 108.101L279.966 111.144L279.924 111.154C279.662 111.225 279.397 111.281 279.13 111.322C279.018 111.339 278.907 111.351 278.796 111.364C278.75 111.368 278.703 111.368 278.657 111.364C278.485 111.356 278.319 111.305 278.171 111.216C278.023 111.127 277.899 111.002 277.81 110.852C277.72 110.702 277.668 110.531 277.657 110.356C277.646 110.18 277.678 110.004 277.749 109.844C278.394 108.41 278.526 106.789 278.121 105.265L277.965 104.678C277.966 104.672 277.966 104.667 277.965 104.661L277.456 102.743C277.069 101.269 276.234 99.96 275.073 99.0068C274.939 98.8927 274.798 98.7993 274.656 98.6872C274.364 98.4778 274.136 98.1878 273.997 97.8507C273.859 97.5135 273.816 97.143 273.874 96.7819C273.932 96.4209 274.088 96.084 274.324 95.8103C274.561 95.5366 274.868 95.3373 275.21 95.2352L275.251 95.2228L282.469 94.1019C284.252 93.6037 285.97 95.0131 286.457 96.846L287.037 99.0297L288.272 103.686C288.749 105.529 288.327 107.602 286.542 108.101Z" fill="#FFD3B6"/>
<path d="M286.497 108.251L279.769 111.158L279.726 111.168C279.568 111.196 279.076 111.276 278.429 111.367C278.253 111.359 278.083 111.311 277.932 111.226C277.781 111.14 277.654 111.021 277.562 110.877C277.47 110.734 277.417 110.571 277.406 110.404C277.395 110.236 277.427 110.068 277.5 109.915C278.16 108.545 278.295 106.995 277.881 105.539L277.721 104.978C277.722 104.973 277.722 104.967 277.721 104.962L277.2 103.129C276.804 101.72 275.95 100.47 274.761 99.5588C275.013 99.2043 275.389 98.9476 275.82 98.8348C275.833 98.8348 275.849 98.8348 275.864 98.8229L283.248 97.7518C284.787 97.3551 286.274 98.2457 287.004 99.5806L288.268 104.03C288.756 105.793 288.324 107.775 286.497 108.251Z" fill="#FFC197"/>
<path d="M181.653 180.973C181.653 180.973 178.9 155.298 176.363 150.293C173.825 145.288 171.675 135.26 175.581 127.809C179.488 120.359 180.834 106.024 180.834 106.024C182.35 122.388 177.795 134.534 180.988 137.751C181.107 137.87 181.329 137.813 181.642 137.6L181.653 180.973Z" fill="#EFA26F"/>
<path d="M255.467 69.4641H156.219C152.117 69.4641 148.791 72.8264 148.791 76.9739V115.88C148.791 120.028 152.117 123.39 156.219 123.39H255.467C259.569 123.39 262.895 120.028 262.895 115.88V76.9739C262.895 72.8264 259.569 69.4641 255.467 69.4641Z" fill="#FF664A"/>
<path d="M202.451 134.358H262.207C264.569 134.362 266.834 135.297 268.503 136.957C270.172 138.618 271.11 140.868 271.11 143.214V157.491C271.11 159.84 270.171 162.092 268.498 163.753C266.826 165.415 264.558 166.348 262.193 166.348H202.437C201.266 166.348 200.106 166.119 199.024 165.674C197.942 165.229 196.959 164.577 196.131 163.755C195.303 162.932 194.646 161.956 194.198 160.882C193.75 159.807 193.52 158.656 193.52 157.493V143.214C193.52 142.05 193.751 140.897 194.2 139.822C194.649 138.747 195.307 137.77 196.136 136.947C196.966 136.125 197.951 135.473 199.034 135.029C200.118 134.584 201.279 134.357 202.451 134.358V134.358Z" fill="#F8AE05"/>
<path d="M262.192 180.059H202.437C197.512 180.059 193.52 184.024 193.52 188.915V203.193C193.52 208.084 197.512 212.049 202.437 212.049H262.192C267.117 212.049 271.11 208.084 271.11 203.193V188.915C271.11 184.024 267.117 180.059 262.192 180.059Z" fill="#67DD72"/>
<path d="M304.885 201.995C304.885 201.995 317.291 221.851 318.933 222.746C320.576 223.641 326.959 224.891 327.689 222.746C328.419 220.601 304.885 201.995 304.885 201.995Z" fill="#EFA26F"/>
<path d="M366.044 235.813L365.984 235.761C365.984 235.761 358.006 229.751 353.814 228.054C348.425 225.197 341.578 222.02 340.485 221.189C341.737 222.555 350.53 232.083 353.924 232.79C356.899 233.416 363.655 235.185 366.044 235.813Z" fill="#EFA26F"/>
<path d="M294.844 276.31V246.781C294.844 246.781 301.581 258.504 302.094 264.95C302.607 271.396 299.297 281.802 294.844 276.31Z" fill="#EFA26F"/>
<path d="M384.08 32.9004H358.963C349.766 32.9004 342.311 40.1513 342.311 49.0959V68.4054C342.311 77.3499 349.766 84.6009 358.963 84.6009H384.08C393.276 84.6009 400.732 77.3499 400.732 68.4054V49.0959C400.732 40.1513 393.276 32.9004 384.08 32.9004Z" fill="#67DD72"/>
<path d="M13.5923 109.041H102.178C105.581 109.05 108.841 110.409 111.247 112.822C113.653 115.236 115.008 118.506 115.016 121.919V160.905C115.009 164.042 113.763 167.047 111.553 169.265C109.342 171.483 106.345 172.732 103.219 172.74H100.941L105.21 190.822L78.4222 172.736H12.8273C9.42751 172.725 6.17034 171.365 3.767 168.952C1.36367 166.54 0.00942498 163.272 0 159.862V122.676C0.0103756 119.063 1.44575 115.601 3.99256 113.046C6.53937 110.491 9.99061 109.051 13.5923 109.041Z" fill="#C0D8FB"/>
<path d="M10.5421 134.421H104.474C105.091 134.419 105.681 134.071 106.117 133.455C106.553 132.838 106.799 132.003 106.801 131.131V131.131C106.799 130.26 106.553 129.424 106.117 128.808C105.681 128.192 105.091 127.844 104.474 127.841H10.5421C9.92558 127.844 9.33488 128.192 8.89894 128.808C8.463 129.424 8.21725 130.26 8.21533 131.131V131.131C8.21725 132.003 8.463 132.838 8.89894 133.455C9.33488 134.071 9.92558 134.419 10.5421 134.421V134.421Z" fill="white"/>
<path d="M10.5421 148.521H104.474C105.091 148.519 105.681 148.171 106.117 147.555C106.553 146.938 106.799 146.103 106.801 145.231C106.799 144.36 106.553 143.524 106.117 142.908C105.681 142.292 105.091 141.944 104.474 141.941H10.5421C9.92558 141.944 9.33488 142.292 8.89894 142.908C8.463 143.524 8.21725 144.36 8.21533 145.231C8.21725 146.103 8.463 146.938 8.89894 147.555C9.33488 148.171 9.92558 148.519 10.5421 148.521V148.521Z" fill="white"/>
<path d="M10.5421 160.742H104.474C105.091 160.74 105.681 160.491 106.117 160.051C106.553 159.611 106.799 159.014 106.801 158.392V158.392C106.799 157.769 106.553 157.172 106.117 156.732C105.681 156.292 105.091 156.043 104.474 156.042H10.5421C9.92558 156.043 9.33488 156.292 8.89894 156.732C8.463 157.172 8.21725 157.769 8.21533 158.392V158.392C8.21725 159.014 8.463 159.611 8.89894 160.051C9.33488 160.491 9.92558 160.74 10.5421 160.742V160.742Z" fill="white"/>
<path d="M47.4308 120.321H99.5349C100.493 120.32 101.411 120.121 102.088 119.769C102.766 119.417 103.147 118.94 103.15 118.442V118.442C103.147 117.944 102.766 117.467 102.089 117.114C101.411 116.762 100.493 116.563 99.5349 116.561H47.4308C46.4724 116.563 45.5544 116.762 44.8772 117.114C44.1999 117.467 43.8184 117.944 43.8159 118.442V118.442C43.8184 118.94 44.2001 119.417 44.8774 119.769C45.5548 120.121 46.4728 120.32 47.4308 120.321Z" fill="white"/>
<path d="M10.5967 120.321H32.3062C33.6214 120.321 34.6875 119.545 34.6875 118.588V118.294C34.6875 117.337 33.6214 116.561 32.3062 116.561H10.5967C9.2816 116.561 8.21548 117.337 8.21548 118.294V118.588C8.21548 119.545 9.2816 120.321 10.5967 120.321Z" fill="white"/>
<path d="M223.126 83.1743H204.078C203.288 83.1743 202.648 83.9448 202.648 84.8952V85.1094C202.648 86.0598 203.288 86.8303 204.078 86.8303H223.126C223.916 86.8303 224.556 86.0598 224.556 85.1094V84.8952C224.556 83.9448 223.916 83.1743 223.126 83.1743Z" fill="white"/>
<path d="M222.695 96.8844H203.596C203.345 96.8839 203.104 96.7875 202.926 96.6164C202.749 96.4453 202.648 96.2134 202.648 95.9714V95.9714C202.648 95.729 202.748 95.4966 202.926 95.3251C203.103 95.1535 203.344 95.0569 203.596 95.0564H222.695C222.947 95.0569 223.188 95.1535 223.365 95.3251C223.543 95.4966 223.643 95.729 223.643 95.9714V95.9714C223.643 96.2134 223.542 96.4453 223.365 96.6164C223.187 96.7875 222.946 96.8839 222.695 96.8844V96.8844Z" fill="white"/>
<path d="M214.549 99.6265H203.527C203.041 99.6265 202.648 99.9916 202.648 100.442V100.639C202.648 101.089 203.041 101.454 203.527 101.454H214.549C215.034 101.454 215.428 101.089 215.428 100.639V100.442C215.428 99.9916 215.034 99.6265 214.549 99.6265Z" fill="white"/>
<path d="M237.266 99.6265H219.149C218.606 99.6265 218.166 100.035 218.166 100.54V100.541C218.166 101.046 218.606 101.454 219.149 101.454H237.266C237.809 101.454 238.248 101.046 238.248 100.541V100.54C238.248 100.035 237.809 99.6265 237.266 99.6265Z" fill="white"/>
<path d="M252.803 96.8844H227.347C227.092 96.8844 226.846 96.7883 226.665 96.6171C226.484 96.4459 226.382 96.2137 226.382 95.9714C226.382 95.7288 226.484 95.4964 226.665 95.3249C226.846 95.1535 227.091 95.0569 227.347 95.0564H252.803C253.059 95.0569 253.304 95.1535 253.484 95.3251C253.665 95.4966 253.767 95.729 253.767 95.9714V95.9714C253.766 96.2134 253.664 96.4453 253.484 96.6164C253.303 96.7875 253.058 96.8839 252.803 96.8844Z" fill="white"/>
<path d="M222.695 106.024H203.596C203.345 106.023 203.104 105.927 202.926 105.755C202.748 105.584 202.648 105.352 202.648 105.109V105.109C202.648 104.867 202.749 104.635 202.926 104.464C203.104 104.293 203.345 104.197 203.596 104.196H222.695C222.946 104.197 223.187 104.293 223.365 104.464C223.542 104.635 223.643 104.867 223.643 105.109V105.109C223.643 105.352 223.543 105.584 223.365 105.755C223.187 105.927 222.946 106.023 222.695 106.024V106.024Z" fill="white"/>
<path d="M252.803 106.024H227.347C227.091 106.024 226.846 105.927 226.665 105.756C226.484 105.584 226.382 105.352 226.382 105.109V105.109C226.382 104.867 226.484 104.635 226.665 104.464C226.846 104.292 227.092 104.196 227.347 104.196H252.803C253.058 104.197 253.303 104.293 253.484 104.464C253.664 104.635 253.766 104.867 253.767 105.109C253.766 105.352 253.664 105.584 253.484 105.755C253.303 105.927 253.058 106.023 252.803 106.024V106.024Z" fill="white"/>
<path d="M240.717 83.1743H227.564C226.911 83.1743 226.382 83.8344 226.382 84.6487V85.356C226.382 86.1702 226.911 86.8303 227.564 86.8303H240.717C241.37 86.8303 241.9 86.1702 241.9 85.356V84.6487C241.9 83.8344 241.37 83.1743 240.717 83.1743Z" fill="white"/>
<path d="M214.415 187.062H200.922C200.363 187.062 199.909 187.639 199.909 188.351V188.514C199.909 189.226 200.363 189.804 200.922 189.804H214.415C214.974 189.804 215.427 189.226 215.427 188.514V188.351C215.427 187.639 214.974 187.062 214.415 187.062Z" fill="white"/>
<path d="M214.726 195.288H200.61C200.425 195.287 200.247 195.191 200.115 195.019C199.984 194.848 199.91 194.616 199.909 194.374V194.374C199.91 194.132 199.984 193.899 200.115 193.728C200.247 193.557 200.425 193.46 200.61 193.46H214.726C214.912 193.46 215.09 193.557 215.222 193.728C215.353 193.899 215.427 194.132 215.427 194.374C215.427 194.616 215.353 194.848 215.222 195.019C215.09 195.191 214.912 195.287 214.726 195.288V195.288Z" fill="white"/>
<path d="M208.409 203.725H200.538C200.191 203.725 199.909 204.091 199.909 204.542V204.736C199.909 205.187 200.191 205.553 200.538 205.553H208.409C208.756 205.553 209.038 205.187 209.038 204.736V204.542C209.038 204.091 208.756 203.725 208.409 203.725Z" fill="white"/>
<path d="M224.799 203.725H212.447C212.076 203.725 211.776 204.134 211.776 204.639C211.776 205.144 212.076 205.553 212.447 205.553H224.799C225.169 205.553 225.469 205.144 225.469 204.639C225.469 204.134 225.169 203.725 224.799 203.725Z" fill="white"/>
<path d="M236.661 195.288H218.841C218.662 195.287 218.491 195.191 218.365 195.019C218.238 194.848 218.167 194.616 218.166 194.374C218.167 194.132 218.238 193.899 218.365 193.728C218.491 193.557 218.662 193.46 218.841 193.46H236.661C236.84 193.46 237.011 193.557 237.137 193.728C237.264 193.899 237.335 194.132 237.336 194.374C237.335 194.616 237.264 194.848 237.137 195.019C237.011 195.191 236.84 195.287 236.661 195.288V195.288Z" fill="white"/>
<path d="M214.726 200.853H200.61C200.425 200.852 200.247 200.756 200.115 200.584C199.984 200.413 199.91 200.181 199.909 199.939C199.91 199.697 199.984 199.465 200.115 199.293C200.247 199.122 200.425 199.026 200.61 199.025H214.726C214.912 199.026 215.09 199.122 215.222 199.293C215.353 199.465 215.427 199.697 215.427 199.939C215.427 200.181 215.353 200.413 215.222 200.584C215.09 200.756 214.912 200.852 214.726 200.853V200.853Z" fill="white"/>
<path d="M236.661 200.853H218.841C218.662 200.852 218.491 200.756 218.365 200.584C218.238 200.413 218.167 200.181 218.166 199.939V199.939C218.167 199.697 218.238 199.465 218.365 199.293C218.491 199.122 218.662 199.026 218.841 199.025H236.661C236.84 199.026 237.011 199.122 237.137 199.293C237.264 199.465 237.335 199.697 237.336 199.939C237.335 200.181 237.264 200.413 237.137 200.584C237.011 200.756 236.84 200.852 236.661 200.853V200.853Z" fill="white"/>
<path d="M227.372 187.062H218.089C217.627 187.062 217.253 187.557 217.253 188.167V188.698C217.253 189.308 217.627 189.804 218.089 189.804H227.372C227.833 189.804 228.207 189.308 228.207 188.698V188.167C228.207 187.557 227.833 187.062 227.372 187.062Z" fill="white"/>
<path d="M235.29 139.842H220.211C219.586 139.842 219.079 140.42 219.079 141.133V141.294C219.079 142.006 219.586 142.584 220.211 142.584H235.29C235.916 142.584 236.423 142.006 236.423 141.294V141.133C236.423 140.42 235.916 139.842 235.29 139.842Z" fill="white"/>
<path d="M235.638 148.069H219.864C219.656 148.068 219.457 147.971 219.309 147.8C219.162 147.628 219.079 147.396 219.079 147.153C219.079 146.911 219.162 146.679 219.31 146.508C219.457 146.337 219.656 146.24 219.864 146.24H235.638C235.845 146.24 236.045 146.337 236.192 146.508C236.339 146.679 236.422 146.911 236.423 147.153V147.153C236.422 147.396 236.339 147.628 236.192 147.8C236.045 147.971 235.846 148.068 235.638 148.069V148.069Z" fill="white"/>
<path d="M259.385 148.069H239.021C238.816 148.068 238.62 147.971 238.475 147.8C238.33 147.628 238.249 147.396 238.248 147.153C238.249 146.911 238.331 146.679 238.475 146.508C238.62 146.337 238.817 146.24 239.021 146.24H259.385C259.59 146.241 259.785 146.338 259.93 146.509C260.074 146.68 260.156 146.911 260.156 147.153V147.153C260.156 147.395 260.074 147.627 259.93 147.799C259.786 147.97 259.59 148.067 259.385 148.069Z" fill="white"/>
<path d="M235.638 154.109H219.864C219.656 154.109 219.457 154.013 219.31 153.842C219.162 153.671 219.079 153.439 219.079 153.197V153.197C219.079 152.954 219.162 152.722 219.309 152.55C219.457 152.379 219.656 152.282 219.864 152.281H235.638C235.846 152.282 236.045 152.379 236.192 152.55C236.339 152.722 236.422 152.954 236.423 153.197C236.422 153.439 236.339 153.671 236.192 153.842C236.045 154.013 235.845 154.109 235.638 154.109V154.109Z" fill="white"/>
<path d="M259.385 154.109H239.021C238.817 154.109 238.62 154.013 238.475 153.842C238.331 153.671 238.249 153.439 238.248 153.197V153.197C238.249 152.954 238.33 152.722 238.475 152.55C238.62 152.379 238.816 152.282 239.021 152.281H259.385C259.59 152.283 259.786 152.38 259.93 152.551C260.074 152.723 260.156 152.955 260.156 153.197C260.156 153.439 260.074 153.67 259.93 153.841C259.785 154.012 259.59 154.109 259.385 154.109V154.109Z" fill="white"/>
<path d="M235.638 159.037H219.864C219.656 159.037 219.457 158.941 219.31 158.769C219.162 158.598 219.079 158.365 219.079 158.123V158.123C219.079 157.88 219.162 157.648 219.31 157.476C219.457 157.305 219.656 157.209 219.864 157.209H235.638C235.845 157.209 236.045 157.305 236.192 157.476C236.339 157.648 236.422 157.88 236.423 158.123V158.123C236.422 158.365 236.339 158.598 236.192 158.769C236.045 158.941 235.845 159.037 235.638 159.037Z" fill="white"/>
<path d="M259.385 159.037H239.021C238.817 159.037 238.62 158.941 238.475 158.769C238.331 158.598 238.249 158.365 238.248 158.123V158.123C238.249 157.88 238.331 157.648 238.475 157.476C238.62 157.305 238.817 157.209 239.021 157.209H259.385C259.59 157.209 259.785 157.306 259.93 157.477C260.074 157.648 260.156 157.881 260.156 158.123V158.123C260.156 158.365 260.074 158.597 259.93 158.768C259.785 158.94 259.59 159.036 259.385 159.037V159.037Z" fill="white"/>
<path d="M250.053 139.842H239.223C238.685 139.842 238.248 140.337 238.248 140.948V141.478C238.248 142.089 238.685 142.584 239.223 142.584H250.053C250.592 142.584 251.028 142.089 251.028 141.478V140.948C251.028 140.337 250.592 139.842 250.053 139.842Z" fill="white"/>
<path d="M160.658 55.1409L159.291 57.3403L157.919 55.165C158.075 54.675 158.28 54.2755 158.518 53.9998C158.756 53.7242 159.02 53.5803 159.288 53.5803C159.556 53.5803 159.82 53.7242 160.059 53.9998C160.297 54.2755 160.502 54.675 160.658 55.165V55.1409Z" fill="white"/>
<path d="M159.304 47.9404C157.778 47.9404 156.274 48.3199 154.921 49.0467C153.567 49.7735 152.404 50.8262 151.53 52.1154L153.555 53.5805C154.202 52.6346 155.058 51.862 156.054 51.3273C157.049 50.7926 158.155 50.5112 159.277 50.5068C160.4 50.5023 161.507 50.7749 162.507 51.3018C163.506 51.8286 164.369 52.5944 165.022 53.5351L167.048 52.0441C166.167 50.7741 165.005 49.7391 163.658 49.0254C162.312 48.3116 160.819 47.9397 159.304 47.9404V47.9404Z" fill="white"/>
<path d="M159.339 31.9605C155.659 31.9619 152.033 32.9873 148.767 34.9502C145.501 36.913 142.692 39.7557 140.576 43.2382L142.892 45.1206C144.735 42.072 147.185 39.5804 150.035 37.8556C152.885 36.1307 156.051 35.2232 159.268 35.2094C162.484 35.1956 165.657 36.0759 168.518 37.7762C171.379 39.4765 173.844 41.947 175.707 44.9796L178.002 43.0641C175.881 39.6267 173.081 36.8254 169.835 34.8939C166.588 32.9624 162.99 31.9567 159.339 31.9605Z" fill="white"/>
<path d="M159.326 39.4805C156.548 39.4805 153.811 40.1712 151.342 41.495C148.874 42.8187 146.747 44.7368 145.14 47.0889L147.595 48.8805C148.927 46.9532 150.68 45.3814 152.711 44.2941C154.742 43.2068 156.992 42.635 159.277 42.6258C161.561 42.6166 163.816 43.1701 165.855 44.2409C167.893 45.3118 169.658 46.8694 171.004 48.7858L173.437 46.9784C171.827 44.6557 169.708 42.7642 167.254 41.4604C164.8 40.1566 162.083 39.4779 159.326 39.4805V39.4805Z" fill="white"/>
<path d="M381.282 300.917C369.384 315.74 355.4 328.766 339.767 339.591L308.589 340.524C304.724 338.101 284.643 325.284 276.201 315.534C274.411 313.467 267.555 295.406 262.262 280.734C258.958 271.569 256.26 263.72 255.791 261.911C255.628 261.281 255.494 260.03 255.385 258.334L255.385 258.318C255.004 252.264 254.93 240.568 254.943 231.278L254.942 231.236L254.938 231.118L254.938 231.096C254.94 230.695 254.94 230.295 254.942 229.906L254.938 229.77C254.944 228.157 254.951 226.637 254.956 225.252C254.975 221.794 255.002 219.193 255.013 218.174L255.017 217.7C255.139 217.624 258.881 215.486 264.077 218.988C265.331 219.835 266.529 221.935 267.645 224.686C268.311 226.326 268.953 228.196 269.553 230.172C269.595 230.315 269.639 230.456 269.682 230.599C272.148 238.806 274.029 248.648 274.965 251.271C276.463 255.51 293.182 273.846 294.227 274.986C294.243 275.007 294.262 275.025 294.276 275.042L293.391 245.343L280.223 213.124L274.816 199.897L272.12 193.241C269.321 188.832 266.811 184.247 264.606 179.514C264.533 179.358 264.462 179.202 264.391 179.044C262.956 175.884 261.641 172.52 260.779 169.315C260.555 168.521 260.377 167.726 260.223 166.93L260.223 166.92C259.66 164.062 259.549 161.401 260.145 159.214C261.21 155.312 263.848 154.499 265.893 154.524C266.093 154.518 266.309 154.537 266.508 154.553C266.6 154.563 266.693 154.574 266.785 154.587C266.89 154.604 266.987 154.625 267.098 154.65C267.457 154.733 267.802 154.865 268.126 155.041C268.664 155.336 269.129 155.746 269.489 156.242C269.489 156.242 271.28 158.438 273.684 161.391C275.266 163.345 277.113 165.606 278.887 167.795C282.045 171.704 284.979 175.334 285.789 176.396C290.134 182.131 301.884 200.813 302.035 201.052L315.271 201.211C317.369 201.234 319.389 202.009 320.963 203.393C325.797 207.638 336.221 216.825 337.507 218.199C337.508 218.237 337.564 218.296 337.667 218.373C337.74 218.427 337.837 218.492 337.957 218.564C338.043 218.618 338.141 218.675 338.251 218.736L338.365 218.8C338.445 218.844 338.528 218.891 338.62 218.939L338.756 219.013L339.021 219.153L339.052 219.168L339.371 219.333C341.678 220.515 345.776 222.424 349.616 224.339L350.227 224.641C350.728 224.892 351.222 225.144 351.707 225.397C356.116 227.105 364.574 233.368 364.574 233.368L364.638 233.422C366.367 234.863 367.693 236.311 368.389 237.714C370.694 242.345 376.612 274.28 381.282 300.917Z" fill="#FFB27D"/>
<path d="M347.695 327.212L324.445 340.049L308.716 340.519C304.85 338.111 284.767 325.371 276.325 315.679C274.535 313.623 267.681 295.666 262.389 281.078C263.091 283.015 277.486 311.238 281.439 314.376C285.393 317.514 306.201 335.854 311.786 335.493C317.19 335.149 345.843 327.708 347.608 327.239L347.695 327.212Z" fill="#EFA26F"/>
<path d="M356.88 326.399C341.977 339.377 325.137 350.063 306.939 358.087L306.132 342.17C310.361 340.425 328.262 333.869 345.094 329.246C345.122 329.245 345.148 329.233 345.174 329.226C349.091 328.153 353.041 327.183 356.88 326.399Z" fill="#D2E3FC"/>
<path d="M254.848 229.553C256.117 228.99 257.907 228.595 258.822 230.221C260.245 232.75 255.723 255.492 255.16 258.361L254.848 229.553Z" fill="#EFA26F"/>
<path d="M254.71 218.146L254.525 231.775C254.525 231.775 257.525 232.166 259.195 230.908C260.865 229.651 259.685 217.859 254.71 218.146Z" fill="#FFC197"/>
<path d="M199.91 295.859C191.805 297.532 174.335 291.12 174.335 291.12L177.146 263.718L157.413 286.481C147.367 282.717 131.654 272.89 122.319 266.782C146.242 264.155 164.103 240.383 164.103 240.383C180.685 249.427 199.403 254.711 199.403 254.711C199.397 270.997 199.91 295.859 199.91 295.859Z" fill="#CBE1FD"/>
<path d="M144.227 270.973C144.233 270.34 144.426 269.723 144.782 269.2C145.138 268.678 145.64 268.272 146.226 268.035C146.812 267.799 147.455 267.741 148.074 267.87C148.693 268 149.259 268.31 149.702 268.761C150.145 269.213 150.444 269.786 150.561 270.407C150.678 271.029 150.609 271.672 150.362 272.254C150.114 272.836 149.7 273.332 149.171 273.679C148.642 274.025 148.023 274.207 147.391 274.201C146.544 274.193 145.735 273.848 145.142 273.243C144.548 272.637 144.219 271.821 144.227 270.973Z" fill="#F99746"/>
<path d="M181.101 87.3714C180.838 87.1131 180.503 86.9372 180.138 86.8659C179.773 86.7946 179.394 86.831 179.05 86.9706C178.706 87.1101 178.412 87.3466 178.205 87.6501C177.998 87.9536 177.887 88.3105 177.887 88.6757V102.222C177.887 102.712 178.085 103.182 178.439 103.528C178.792 103.875 179.271 104.069 179.77 104.069C180.269 104.069 180.748 103.875 181.101 103.528C181.455 103.182 181.653 102.712 181.653 102.222V88.6757C181.653 88.4334 181.604 88.1934 181.51 87.9696C181.415 87.7458 181.276 87.5425 181.101 87.3714ZM168.159 91.5836L167.846 91.6074V99.2884C168.303 99.3142 168.757 99.3479 169.212 99.3935C171.788 99.6432 174.281 100.216 176.632 101.314V89.5677C174.125 90.6975 171.143 91.3457 168.159 91.5836ZM164.072 91.7402C163.407 91.749 162.773 92.0136 162.305 92.4771C161.837 92.9405 161.573 93.5657 161.571 94.2179V96.6818C161.573 97.3342 161.837 97.9595 162.305 98.4225C162.774 98.8855 163.409 99.1488 164.074 99.1556L164.696 99.1655C165.325 99.1774 165.953 99.1972 166.579 99.225H166.591V91.6748C165.739 91.7084 164.836 91.7263 164.072 91.7402V91.7402ZM169.729 102.732L169.412 100.652C169.058 100.613 168.703 100.581 168.343 100.555C167.939 100.527 167.535 100.502 167.131 100.482C166.864 100.468 166.599 100.456 166.323 100.448C165.882 100.428 165.44 100.414 164.997 100.402L165.959 102.186L166.646 103.461C166.746 103.68 166.907 103.866 167.111 103.998C167.315 104.128 167.554 104.197 167.797 104.196H168.484C168.669 104.196 168.852 104.156 169.02 104.079C169.187 104.002 169.335 103.89 169.453 103.75C169.57 103.61 169.655 103.446 169.701 103.271C169.748 103.095 169.755 102.91 169.721 102.732H169.729Z" fill="white"/>
<path d="M205.061 155.381C205.061 155.866 205.24 156.33 205.558 156.673C205.876 157.016 206.307 157.209 206.757 157.209C207.206 157.209 207.638 157.016 207.956 156.673C208.274 156.33 208.452 155.866 208.452 155.381H205.061ZM210.995 148.07C210.996 147.016 210.658 145.994 210.039 145.178C209.421 144.362 208.559 143.802 207.601 143.593C207.613 143.465 207.6 143.337 207.563 143.216C207.526 143.094 207.466 142.982 207.386 142.888C207.307 142.793 207.21 142.717 207.103 142.664C206.994 142.612 206.876 142.585 206.757 142.584C206.639 142.585 206.522 142.612 206.414 142.664C206.306 142.718 206.209 142.794 206.127 142.888C206.048 142.983 205.988 143.094 205.951 143.216C205.913 143.337 205.9 143.465 205.913 143.593C204.955 143.803 204.094 144.363 203.475 145.179C202.856 145.995 202.518 147.016 202.518 148.07C202.518 149.074 202.094 153.553 200.822 154.469H212.689C211.419 153.549 210.995 149.07 210.995 148.066V148.07Z" fill="white"/>
<path d="M259.79 193.847C259.932 193.714 260.122 193.64 260.318 193.642C260.515 193.643 260.703 193.719 260.843 193.854C260.983 193.989 261.064 194.172 261.069 194.364C261.074 194.556 261.002 194.743 260.869 194.884L256.845 199.809C256.776 199.882 256.693 199.941 256.6 199.982C256.506 200.02 256.406 200.04 256.305 200.04C256.203 200.04 256.103 200.02 256.01 199.982C255.915 199.945 255.829 199.889 255.756 199.819L253.087 197.211C253.014 197.143 252.955 197.061 252.913 196.971C252.874 196.879 252.854 196.781 252.854 196.681C252.854 196.582 252.874 196.483 252.913 196.391C252.951 196.3 253.008 196.216 253.079 196.145C253.152 196.076 253.237 196.021 253.331 195.983C253.472 195.927 253.627 195.915 253.775 195.948C253.924 195.981 254.059 196.056 254.162 196.166L256.274 198.228L259.776 193.861L259.796 193.839L259.79 193.847Z" fill="white"/>
<path d="M257.418 202.909C260.947 202.909 263.807 200.044 263.807 196.511C263.807 192.977 260.947 190.113 257.418 190.113C253.889 190.113 251.028 192.977 251.028 196.511C251.028 200.044 253.889 202.909 257.418 202.909Z" stroke="white" stroke-miterlimit="10"/>
<path fill-rule="evenodd" clip-rule="evenodd" d="M357.581 45.1103C357.995 44.7826 358.473 44.5357 358.987 44.3838C360.061 44.0651 361.22 44.1229 362.253 44.5468C362.736 44.7478 363.172 45.04 363.533 45.4057L367.629 49.6017C367.989 49.9547 368.245 50.3917 368.371 50.8685C368.496 51.3453 368.487 51.8452 368.344 52.3176L367.096 56.3134C367.028 56.5177 367.028 56.737 367.096 56.9414C367.171 57.1536 367.308 57.3416 367.489 57.4846L373.094 61.9658C373.293 62.1194 373.527 62.2274 373.777 62.2815C374.036 62.337 374.305 62.337 374.564 62.2815L379.572 61.2868C380.161 61.1692 380.768 61.16 381.36 61.2597C381.938 61.3541 382.489 61.5585 382.981 61.8606L388.242 65.1332C390.134 66.3078 390.306 68.5281 388.6 69.886L386.239 71.7702C385.337 72.474 384.268 72.9585 383.124 73.1815C381.981 73.4045 380.797 73.3594 379.676 73.05C373.817 71.4395 368.374 68.6954 363.687 64.9906C359.299 61.5557 355.841 57.1728 353.604 52.209C352.778 50.3316 353.518 48.3151 355.206 46.9639L357.581 45.1103ZM382.129 45.3548C382.234 45.2681 382.356 45.2013 382.487 45.1579C382.771 45.0629 383.08 45.0629 383.363 45.1579C383.494 45.2021 383.616 45.2688 383.721 45.3548L389.444 49.9141C389.546 49.9962 389.63 50.0966 389.691 50.2094C389.746 50.3152 389.775 50.4311 389.777 50.5489C389.776 50.6668 389.746 50.7829 389.691 50.8884C389.63 51.0023 389.546 51.1038 389.444 51.1871L383.721 55.743C383.492 55.9169 383.208 56.0116 382.915 56.0116C382.621 56.0116 382.337 55.9169 382.108 55.743C382.003 55.6673 381.919 55.5697 381.86 55.4578C381.802 55.346 381.772 55.2228 381.772 55.098C381.772 54.9732 381.802 54.8501 381.86 54.7382C381.919 54.6263 382.003 54.5287 382.108 54.453L385.864 51.4519H374.929C374.636 51.4556 374.351 51.3606 374.124 51.1837C374.02 51.108 373.935 51.0104 373.877 50.8985C373.818 50.7867 373.788 50.6635 373.788 50.5387C373.788 50.4139 373.818 50.2908 373.877 50.1789C373.935 50.067 374.02 49.9694 374.124 49.8937C374.352 49.7191 374.637 49.6254 374.929 49.6289H385.864L382.108 46.6278C382.004 46.5453 381.919 46.4437 381.858 46.3291C381.801 46.2209 381.772 46.1018 381.772 45.9811C381.772 45.8604 381.801 45.7413 381.858 45.6331C381.928 45.524 382.02 45.4293 382.129 45.3548Z" fill="white"/>
<path d="M268.301 167.273C267.279 165.523 265.448 162.348 264.817 160.572C264.639 160.07 264.661 159.065 265.279 158.001C265.737 157.235 266.366 156.584 267.116 156.098C267.516 155.816 267.948 155.584 268.404 155.406C268.933 155.213 269.49 155.11 270.053 155.101C270.336 155.113 270.612 155.194 270.858 155.336C271.103 155.479 271.309 155.678 271.46 155.918V155.918C272.675 157.684 274.21 160.088 275.255 162.263C275.978 163.767 275.75 165.503 274.696 166.265L274.204 166.625L271.686 168.46C270.643 169.224 269.135 168.704 268.301 167.273Z" fill="#FFD3B6"/>
<path d="M268.447 167.314C267.383 165.609 265.477 162.518 264.821 160.789C264.636 160.3 264.658 159.322 265.302 158.285C265.473 158.153 265.657 158.025 265.857 157.9C266.273 157.626 266.723 157.4 267.197 157.226C267.747 157.038 268.327 156.938 268.913 156.93C269.208 156.942 269.496 157.02 269.751 157.159C270.007 157.297 270.222 157.492 270.379 157.725C270.379 157.725 270.379 157.725 270.379 157.725C271.644 159.445 273.242 161.785 274.329 163.903C274.795 164.764 274.888 165.76 274.591 166.684L271.969 168.471C270.885 169.213 269.315 168.706 268.447 167.314Z" fill="#FFC197"/>
</svg>
