<svg id="Capa_1" data-name="Capa 1" xmlns="http://www.w3.org/2000/svg" xmlns:xlink="http://www.w3.org/1999/xlink" viewBox="0 0 250 138.44"><defs><style>.cls-1{fill:#484b51;}.cls-2{fill:url(#Degradado_sin_nombre_23);}.cls-3{fill:url(#Degradado_sin_nombre_23-2);}.cls-4{fill:url(#Degradado_sin_nombre_20);}.cls-5{fill:url(#Degradado_sin_nombre_20-2);}.cls-6{fill:url(#Degradado_sin_nombre_20-3);}.cls-7{fill:url(#Degradado_sin_nombre_20-4);}.cls-8{fill:url(#Degradado_sin_nombre_20-5);}.cls-9{fill:url(#Degradado_sin_nombre_20-6);}.cls-10{fill:url(#Degradado_sin_nombre_20-7);}</style><linearGradient id="Degradado_sin_nombre_23" x1="205.96" y1="117.46" x2="255.38" y2="157.9" gradientUnits="userSpaceOnUse"><stop offset="0" stop-color="#39a9df"/><stop offset="1" stop-color="#598bef"/></linearGradient><linearGradient id="Degradado_sin_nombre_23-2" x1="215.94" y1="105.25" x2="265.37" y2="145.69" xlink:href="#Degradado_sin_nombre_23"/><linearGradient id="Degradado_sin_nombre_20" x1="87.16" y1="27.61" x2="159.93" y2="103.69" gradientUnits="userSpaceOnUse"><stop offset="0" stop-color="#3aa8e0"/><stop offset="1" stop-color="#598bef"/></linearGradient><linearGradient id="Degradado_sin_nombre_20-2" x1="123.54" y1="-7.19" x2="196.31" y2="68.89" xlink:href="#Degradado_sin_nombre_20"/><linearGradient id="Degradado_sin_nombre_20-3" x1="93.33" y1="21.71" x2="166.1" y2="97.79" xlink:href="#Degradado_sin_nombre_20"/><linearGradient id="Degradado_sin_nombre_20-4" x1="117.37" y1="-1.29" x2="190.15" y2="74.79" xlink:href="#Degradado_sin_nombre_20"/><linearGradient id="Degradado_sin_nombre_20-5" x1="105.45" y1="10.12" x2="178.22" y2="86.19" xlink:href="#Degradado_sin_nombre_20"/><linearGradient id="Degradado_sin_nombre_20-6" x1="85.32" y1="3.13" x2="158.1" y2="79.2" xlink:href="#Degradado_sin_nombre_20"/><linearGradient id="Degradado_sin_nombre_20-7" x1="91.12" y1="-2.42" x2="163.9" y2="73.65" xlink:href="#Degradado_sin_nombre_20"/></defs><path class="cls-1" d="M16.55,123.68c0-11.31,6.54-18.43,18.5-18.43s18.69,7.12,18.69,18.43v25.16H47.08V135.31H23v13.53H16.55Zm30.53,5.49v-5.49c0-7.71-4.06-12.29-12-12.29S23,116,23,123.68v5.49Z" transform="translate(-16.55 -10.41)"/><path class="cls-1" d="M61.52,106.1h6.67v36.6h24v6.14H61.52Z" transform="translate(-16.55 -10.41)"/><path class="cls-1" d="M98.25,106.1h31.44v6.14H104.92V124h21v6.14h-21V142.7h24.77v6.14H98.25Z" transform="translate(-16.55 -10.41)"/><path class="cls-1" d="M137.08,106.1h18.36c10.52,0,15.1,5.81,15.1,13.72,0,6.41-3,11.44-9.74,13.14l11.31,15.88h-8l-10.19-15.29h-10.2v15.29h-6.66Zm18.43,21.3c6.21,0,8.3-3.26,8.3-7.58s-2.16-7.58-8.3-7.58H143.74V127.4Z" transform="translate(-16.55 -10.41)"/><path class="cls-1" d="M188.32,112.24H174.79V106.1h33.79v6.14H195v36.6h-6.67Z" transform="translate(-16.55 -10.41)"/><path class="cls-2" d="M214.85,106.1h6.67v42.74h-6.67Z" transform="translate(-16.55 -10.41)"/><path class="cls-3" d="M229.36,123.68c0-11.31,6.54-18.43,18.5-18.43s18.69,7.12,18.69,18.43v25.16h-6.66V135.31h-24v13.53h-6.48Zm30.53,5.49v-5.49c0-7.71-4.06-12.29-12-12.29s-12,4.58-12,12.29v5.49Z" transform="translate(-16.55 -10.41)"/><path class="cls-4" d="M106.73,85.71a2.78,2.78,0,0,1-2-.83,52.06,52.06,0,0,1,0-73.65,2.82,2.82,0,1,1,4,4,46.43,46.43,0,0,0,0,65.66,2.82,2.82,0,0,1,0,4A2.85,2.85,0,0,1,106.73,85.71Z" transform="translate(-16.55 -10.41)"/><path class="cls-5" d="M176.38,85.71a2.83,2.83,0,0,1-2-4.82,46.43,46.43,0,0,0,0-65.66,2.83,2.83,0,0,1,4-4,52.06,52.06,0,0,1,0,73.65A2.79,2.79,0,0,1,176.38,85.71Z" transform="translate(-16.55 -10.41)"/><path class="cls-6" d="M118.54,73.9a2.78,2.78,0,0,1-2-.83,35.36,35.36,0,0,1,0-50,2.82,2.82,0,1,1,4,4,29.74,29.74,0,0,0,0,42,2.82,2.82,0,0,1,0,4A2.85,2.85,0,0,1,118.54,73.9Z" transform="translate(-16.55 -10.41)"/><path class="cls-7" d="M164.57,73.9a2.83,2.83,0,0,1-2-4.82,29.72,29.72,0,0,0,0-42,2.83,2.83,0,0,1,4-4,35.38,35.38,0,0,1,0,50A2.79,2.79,0,0,1,164.57,73.9Z" transform="translate(-16.55 -10.41)"/><path class="cls-8" d="M156.66,36.48c-13.11-10.2-36.13-3-36.1,11.57-.28,10.88,14.33,19,27.43,15.63C163,60.22,167.86,44.93,156.66,36.48Zm.47,15.14a2.19,2.19,0,0,1-.38,1.24c-1.25,1.85-5.67,7.22-14.92,7.22s-13.67-5.37-14.92-7.22a2.19,2.19,0,0,1-.38-1.24V42.29a2.23,2.23,0,0,1,2.23-2.23h4.79v.69a2.77,2.77,0,0,0,2.76,2.76h11.27a2.77,2.77,0,0,0,2.76-2.76v-.69h4.56a2.23,2.23,0,0,1,2.23,2.23Z" transform="translate(-16.55 -10.41)"/><ellipse class="cls-9" cx="119.72" cy="39.09" rx="2.27" ry="3.63"/><ellipse class="cls-10" cx="130.83" cy="39.09" rx="2.27" ry="3.63"/></svg>