<?xml version="1.0" encoding="utf-8"?>
<!-- Generator: Adobe Illustrator 25.4.1, SVG Export Plug-In . SVG Version: 6.00 Build 0)  -->
<svg version="1.1" id="Capa_1" xmlns="http://www.w3.org/2000/svg" xmlns:xlink="http://www.w3.org/1999/xlink" x="0px" y="0px"
	 viewBox="0 0 283.1 159.2" style="enable-background:new 0 0 283.1 159.2;" xml:space="preserve">
<style type="text/css">
	.st0{fill:#FFFFFF;}
</style>
<g>
	<g>
		<g>
			<path class="st0" d="M16.6,123.7c0-11.3,6.5-18.4,18.5-18.4c12.1,0,18.7,7.1,18.7,18.4v25.2h-6.7v-13.5H23v13.5h-6.5V123.7z
				 M47.1,129.2v-5.5c0-7.7-4.1-12.3-12-12.3c-8,0-12,4.6-12,12.3v5.5H47.1z"/>
		</g>
		<g>
			<path class="st0" d="M61.5,106.1h6.7v36.6h24v6.1H61.5V106.1z"/>
		</g>
		<g>
			<path class="st0" d="M98.3,106.1h31.4v6.1h-24.8V124h21v6.1h-21v12.5h24.8v6.1H98.3V106.1z"/>
		</g>
		<g>
			<path class="st0" d="M137.1,106.1h18.4c10.5,0,15.1,5.8,15.1,13.7c0,6.4-3,11.4-9.7,13.1l11.3,15.9h-8l-10.2-15.3h-10.2v15.3
				h-6.7V106.1z M155.5,127.4c6.2,0,8.3-3.3,8.3-7.6c0-4.4-2.2-7.6-8.3-7.6h-11.8v15.2H155.5z"/>
		</g>
		<g>
			<path class="st0" d="M188.3,112.2h-13.5v-6.1h33.8v6.1H195v36.6h-6.7V112.2z"/>
		</g>
		<g>
			<g>
				<path class="st0" d="M214.9,106.1h6.7v42.7h-6.7V106.1z"/>
			</g>
			<g>
				<path class="st0" d="M229.4,123.7c0-11.3,6.5-18.4,18.5-18.4c12.1,0,18.7,7.1,18.7,18.4v25.2h-6.7v-13.5h-24.1v13.5h-6.5V123.7z
					 M259.9,129.2v-5.5c0-7.7-4.1-12.3-12-12.3c-8,0-12,4.6-12,12.3v5.5H259.9z"/>
			</g>
		</g>
	</g>
	<g>
		<g>
			<g>
				<path class="st0" d="M106.7,85.7c-0.7,0-1.4-0.3-2-0.8C94.9,75.1,89.5,62,89.5,48.1s5.4-27,15.3-36.8c1.1-1.1,2.9-1.1,4,0
					c1.1,1.1,1.1,2.9,0,4C100,24,95.1,35.7,95.1,48.1s4.8,24.1,13.6,32.8c1.1,1.1,1.1,2.9,0,4C108.2,85.4,107.4,85.7,106.7,85.7z"/>
			</g>
		</g>
		<g>
			<g>
				<path class="st0" d="M176.4,85.7c-0.7,0-1.4-0.3-2-0.8c-1.1-1.1-1.1-2.9,0-4c8.8-8.8,13.6-20.4,13.6-32.8s-4.8-24.1-13.6-32.8
					c-1.1-1.1-1.1-2.9,0-4c1.1-1.1,2.9-1.1,4,0c9.8,9.8,15.3,22.9,15.3,36.8s-5.4,27-15.3,36.8C177.8,85.4,177.1,85.7,176.4,85.7z"
					/>
			</g>
		</g>
		<g>
			<g>
				<path class="st0" d="M118.5,73.9c-0.7,0-1.4-0.3-2-0.8c-6.7-6.7-10.4-15.6-10.4-25s3.7-18.3,10.4-25c1.1-1.1,2.9-1.1,4,0
					c1.1,1.1,1.1,2.9,0,4c-5.6,5.6-8.7,13.1-8.7,21s3.1,15.4,8.7,21c1.1,1.1,1.1,2.9,0,4C120,73.6,119.3,73.9,118.5,73.9z"/>
			</g>
		</g>
		<g>
			<g>
				<path class="st0" d="M164.6,73.9c-0.7,0-1.4-0.3-2-0.8c-1.1-1.1-1.1-2.9,0-4c5.6-5.6,8.7-13.1,8.7-21s-3.1-15.4-8.7-21
					c-1.1-1.1-1.1-2.9,0-4c1.1-1.1,2.9-1.1,4,0c6.7,6.7,10.4,15.6,10.4,25s-3.7,18.3-10.4,25C166,73.6,165.3,73.9,164.6,73.9z"/>
			</g>
		</g>
		<g>
			<path class="st0" d="M156.7,36.5c-13.1-10.2-36.1-3-36.1,11.6c-0.3,10.9,14.3,19,27.4,15.6C163,60.2,167.9,44.9,156.7,36.5z
				 M157.1,51.6c0,0.4-0.1,0.9-0.4,1.2c-1.2,1.8-5.7,7.2-14.9,7.2c-9.2,0-13.7-5.4-14.9-7.2c-0.2-0.4-0.4-0.8-0.4-1.2v-9.3
				c0-1.2,1-2.2,2.2-2.2h4.8v0.7c0,1.5,1.2,2.8,2.8,2.8h11.3c1.5,0,2.8-1.2,2.8-2.8v-0.7h4.6c1.2,0,2.2,1,2.2,2.2V51.6z"/>
		</g>
		<g>
			<ellipse class="st0" cx="136.3" cy="49.5" rx="2.3" ry="3.6"/>
		</g>
		<g>
			<ellipse class="st0" cx="147.4" cy="49.5" rx="2.3" ry="3.6"/>
		</g>
	</g>
</g>
</svg>
