<?xml version="1.0" encoding="utf-8"?>
<!-- Generator: Adobe Illustrator 26.0.3, SVG Export Plug-In . SVG Version: 6.00 Build 0)  -->
<svg version="1.1" id="Capa_1" xmlns="http://www.w3.org/2000/svg" xmlns:xlink="http://www.w3.org/1999/xlink" x="0px" y="0px"
	 viewBox="0 0 266 510" style="enable-background:new 0 0 266 510;" xml:space="preserve">
<style type="text/css">
	.st0{opacity:0.75;}
	.st1{fill:none;}
	.st2{fill:#FF664A;}
	.st3{fill:#FFFFFF;}
	.st4{fill:#1A2E4E;}
	.st5{fill:#F7BDAD;}
	.st6{fill:#17417D;}
	.st7{fill:#6D81BF;}
	.st8{fill:#F8BDA2;}
	.st9{fill:#11448D;}
	.st10{fill:#004987;}
	.st11{fill:#566BA5;}
	.st12{fill:#738BC6;}
	.st13{fill:#54C55F;}
	.st14{fill:url(#SVGID_1_);}
	.st15{fill:url(#SVGID_00000034797215143854082580000002303523946326339767_);}
	.st16{fill:url(#SVGID_00000062887878317994489150000013091581673707716498_);}
	.st17{fill:url(#SVGID_00000167360994093340759340000013075219518056579481_);}
	.st18{fill:url(#SVGID_00000068676415610955608870000013916058606530346426_);}
	.st19{fill:url(#SVGID_00000024717797035227605500000003949557753912084870_);}
	.st20{fill:url(#SVGID_00000117646895811019563200000010761148160374953345_);}
	.st21{fill:url(#SVGID_00000051378377231836739860000000687331245904070033_);}
	.st22{fill:url(#SVGID_00000023980679003326286950000002928993423276976048_);}
	.st23{fill:url(#SVGID_00000178908654812848823660000001449412978487740077_);}
	.st24{fill:url(#SVGID_00000121960033413863704920000006679713358905567116_);}
	.st25{fill:url(#SVGID_00000109724048545919865450000005725076433404959933_);}
	.st26{fill:url(#SVGID_00000182497980729003017050000015259458397593174168_);}
	.st27{fill:url(#SVGID_00000105395172136393680800000012888979793496770726_);}
	.st28{fill:url(#SVGID_00000088813447719889752210000013531366763920238252_);}
	.st29{fill:#91E899;}
	.st30{fill:url(#SVGID_00000067931131440981385660000006233709300741886393_);}
	.st31{fill:url(#SVGID_00000097469069381890097280000006012505194904979585_);}
	.st32{fill:url(#SVGID_00000131352448198601498470000006887912264693222297_);}
	.st33{fill:url(#SVGID_00000152950048498520349170000014670440358600412317_);}
	.st34{fill:url(#SVGID_00000148655735006867064620000006565524879640119473_);}
	.st35{fill:url(#SVGID_00000011719713090145896440000002914716255466463621_);}
	.st36{fill:url(#SVGID_00000069394472560424966510000013162872443357159861_);}
	.st37{fill:#154ACE;}
	.st38{fill:#8099FF;}
	.st39{fill:#A2B4FF;}
	.st40{fill:#963248;}
	.st41{fill:#D2B3B7;}
</style>
<g class="st0">
	<rect x="8.7" y="0.9" class="st1" width="256.5" height="214.2"/>
</g>
<path class="st2" d="M190.2,55.6H80.4c-3.9,0-7.7,1.6-10.5,4.3c-2.8,2.8-4.3,6.6-4.3,10.5V153l12.9-16.7h111.6
	c3.9,0,7.7-1.6,10.5-4.3c2.8-2.8,4.3-6.6,4.3-10.5v-51c0-2-0.4-3.9-1.1-5.7c-0.7-1.8-1.8-3.4-3.2-4.8c-1.4-1.4-3-2.5-4.8-3.2
	C194,56,192.1,55.6,190.2,55.6z"/>
<path class="st3" d="M151.3,78.3c0-0.6,0.1-1.2,0.4-1.8c0.2-0.6,0.6-1.1,1-1.5c0.9-0.9,2.1-1.4,3.4-1.4c1.3,0,2.5,0.5,3.4,1.4
	c0.4,0.4,0.8,1,1,1.5c0.2,0.6,0.4,1.2,0.4,1.8v34.3c0,0.6-0.1,1.2-0.4,1.8c-0.2,0.6-0.6,1.1-1,1.5c-0.9,0.9-2.1,1.4-3.4,1.4
	c-1.3,0-2.5-0.5-3.4-1.4c-0.4-0.4-0.8-1-1-1.5c-0.2-0.6-0.4-1.2-0.4-1.8V78.3z M148.1,80.6c-7.1,3-14.7,4.8-22.5,5.2v19.5
	c1.2,0,2.3,0.1,3.5,0.3c6.6,0.5,13,2.1,19,4.8V80.6z M122.5,105.1V85.9c-2.2,0-4.5,0.1-6.4,0.2c-1.7,0-3.3,0.7-4.6,1.9
	c-0.6,0.6-1.1,1.3-1.4,2c-0.3,0.8-0.5,1.6-0.5,2.4v6.2c0,1.7,0.7,3.3,1.9,4.4c1.2,1.2,2.8,1.8,4.5,1.8h1.6
	C119.2,104.9,120.8,105,122.5,105.1L122.5,105.1z M126.9,108.4c0.9,0,1.8,0.1,2.7,0.2l0.8,5.3c0.1,0.5,0.1,0.9,0,1.4
	c-0.1,0.4-0.3,0.9-0.6,1.2c-0.3,0.4-0.7,0.6-1.1,0.8s-0.9,0.3-1.4,0.3h-1.8c-0.6,0-1.2-0.2-1.8-0.5c-0.5-0.3-0.9-0.8-1.2-1.4
	l-4.3-7.7c1.8,0,3.6,0.1,5.4,0.2C124.9,108.3,125.9,108.4,126.9,108.4L126.9,108.4z"/>
<path class="st4" d="M111.7,236.5h-5.4c-1.2,0-2-1.1-1.7-2.3l6.6-23.5c0.2-0.7,0.7-1.2,1.4-1.3l9.3-1.6c1.4-0.2,2.5,1.1,1.9,2.4
	l-10.5,25.2C113.1,236.1,112.4,236.5,111.7,236.5z"/>
<path class="st5" d="M56.6,214l3.1-8.5c0,0,5.2,2.7,9.8-3.1c3-3.8,6.5-15.4,4.8-21.2c-4.4-14.6-22.1-19.6-27.6-8.7
	c-5.5,10.9,0,29.2,0,29.2l-2.5,8.1C46.7,213.8,49.2,220,56.6,214z"/>
<path class="st6" d="M40.7,189.8c0.3,1.1,0.9,2.2,1.6,3.1c0.8,0.9,1.7,1.6,2.8,2c0.6-0.4,1.2-0.9,1.5-1.6s0.4-1.4,0.2-2.2
	c-0.4-2.8-2.2-9.8,2.5-10.6s3.6,6.9,3.6,6.9c8.3-4.4,4.9-10.2,9.5-10.1s11.4,12.4,20.1,6s3.8-23.8,0-23.3s-8,4.4-15.2,4.3
	c-7.2-0.1-11.1-4.4-16.2-4.4s-9,5.6-10.3,12.5C39.6,178.1,39.5,184,40.7,189.8z"/>
<path class="st7" d="M78.4,313.7H15.7l1.9-30.7l0.2-2.7l0.3-5.5l3.8-59.2c7.1-2.8,14.6-4.7,22.2-5.6c1.7,1.7,3.8,2.8,6.2,3.2
	c2.3,0.4,4.7,0.1,6.9-0.9c3,0.7,5.6,2.3,7.7,4.6C80.5,233.7,78.4,313.7,78.4,313.7z"/>
<path class="st7" d="M64.5,216.6c11.8-0.1,22.8,46.7,22.8,46.7l22.4-25.7l9.8,6.1c0,0-24.9,43.9-32.1,41.8
	c-7.3-2.1-19.1-18.3-19.1-18.3S57.4,216.8,64.5,216.6z"/>
<path class="st8" d="M110.8,242l-4.8-13.8c-0.3-0.9-0.3-1.9-0.1-2.9c0.2-0.9,0.7-1.8,1.4-2.5l5.5-5.7c0.7-0.7,1.6-1.2,2.6-1.4
	l1.9-0.4c0.8-0.2,1.7-0.2,2.5,0s1.6,0.6,2.2,1.2c0.6,0.6,1.1,1.3,1.4,2.1s0.4,1.6,0.3,2.5L121,241c-0.1,1.1-0.6,2.1-1.3,2.9
	c-0.7,0.8-1.7,1.3-2.7,1.6c-1.3,0.3-2.6,0.1-3.7-0.5C112.1,244.3,111.2,243.3,110.8,242z"/>
<path class="st5" d="M8.8,473l2,18.7h9.7V475L8.8,473z"/>
<path class="st5" d="M73.9,473l4.5,22.3h8.9l-3.6-25.2L73.9,473z"/>
<path class="st9" d="M15.7,313.7L5.6,481.1h17.5l24-124.3l23.2,124.3H89L76.3,313.7H15.7z"/>
<path class="st10" d="M9.5,485.2L7,493.9c-0.3,0.4-6.2,8.7-6.2,9.2v3.4c0,0.4,0.1,0.7,0.2,1s0.3,0.6,0.6,0.9
	c0.2,0.3,0.5,0.5,0.9,0.6c0.3,0.1,0.7,0.2,1,0.2h19.8c0.7,0,1.4-0.3,1.9-0.8s0.8-1.2,0.8-1.9c0.7-3.5,0.7-7.2,0-10.7
	c-1.4-3.7-3.2-7.2-5.3-10.6L9.5,485.2L9.5,485.2z"/>
<path class="st10" d="M76.5,489.5l-2.5,18h36.5l-1.9-5.4c-0.4-1.2-1.1-2.3-2-3.1c-0.9-0.9-2-1.5-3.3-1.8l-9.1-2.3l-6.9-6L76.5,489.5
	z"/>
<path class="st8" d="M82.8,249.8l-7.9-3.5c-0.7-0.3-1.5-0.3-2.2,0l-14.5,5.5l1.1,12.3l8.9-3c0.4-0.2,0.9-0.4,1.4-0.4h13.6
	c0.5,0,0.9-0.1,1.3-0.3c0.4-0.2,0.8-0.5,1-0.9c0.3-0.4,0.5-0.8,0.5-1.2c0.1-0.5,0-0.9-0.1-1.3l-1.6-5.3c-0.1-0.4-0.3-0.8-0.6-1.1
	C83.6,250.2,83.2,250,82.8,249.8z"/>
<path class="st11" d="M62.8,263.1c-1.1,0.8-8.7,11.9-32,16.3c-4.3,0.7-8.6,1-12.9,0.9l0.3-5.5c3.4,0.9,7,1.2,10.5,1.1
	C36,275.3,57.5,264.5,62.8,263.1z"/>
<path class="st11" d="M28.3,237.8c0,0,0,20.7,0.3,20.7s29.7-6.7,29.7-6.7L25.1,265L28.3,237.8z"/>
<path class="st12" d="M8.8,272.7c-1.5-3,0.4-52.4,12.3-56.9s5.7,46,5.7,46L59,251.3c0,0,0.9,11,3.8,11.9c-4.9,4.9-30,18.3-45.1,15.2
	c-1.8-0.3-3.5-0.9-5.1-1.9C11.1,275.5,9.8,274.2,8.8,272.7z"/>
<path class="st13" d="M187.6,411c-2.5-16.9-8.6-37.6-17.4-51.4c-4.5-7.6-10.5-14.2-17.6-19.5c-1,1.9-2.3,3.7-3.7,5.3
	c0.6-2.5,0.7-5,0.4-7.5c-7.6-4.8-14.6-6.6-18.5-5.4c-5.4,1.5-5.6,7.9,0.8,19.4c4.5,2.6,9.8,3.7,15,3c-3.9,1.2-7.8,2-11.9,2.3
	c3.5,5.4,7.3,10.6,11.4,15.7c18.8,25.6,25.6,44.2,29.2,56c3.6,11.7,3.6,16.7,3.6,16.8c3.6-1.6,7.2-3.1,10.9-4.5
	C190,431,189.2,421,187.6,411z"/>
<radialGradient id="SVGID_1_" cx="-1643.0146" cy="3.0894" r="1" gradientTransform="matrix(183.853 0 0 183.853 302214.4062 -313.5323)" gradientUnits="userSpaceOnUse">
	<stop  offset="0" style="stop-color:#FFFFFF"/>
	<stop  offset="0.33" style="stop-color:#CBD5FF"/>
	<stop  offset="0.62" style="stop-color:#A2B4FF"/>
	<stop  offset="0.86" style="stop-color:#89A0FF"/>
	<stop  offset="1" style="stop-color:#8099FF"/>
</radialGradient>
<path class="st14" d="M183.6,443.2c-0.2,0-0.5-0.1-0.6-0.3c-0.2-0.2-0.3-0.4-0.3-0.6c-1.1-65.4-41.4-97.2-41.8-97.6
	c-0.1-0.1-0.2-0.2-0.3-0.3c-0.1-0.1-0.1-0.2-0.1-0.3c0-0.1,0-0.2,0-0.4s0.1-0.2,0.2-0.3c0.1-0.1,0.2-0.2,0.3-0.2
	c0.1-0.1,0.2-0.1,0.4-0.1c0.1,0,0.2,0,0.4,0.1c0.1,0,0.2,0.1,0.3,0.2c0.4,0.3,41.4,32.8,42.5,99c0,0.1,0,0.2-0.1,0.3
	c0,0.1-0.1,0.2-0.2,0.3c-0.1,0.1-0.2,0.2-0.3,0.2C183.8,443.2,183.7,443.2,183.6,443.2L183.6,443.2z"/>
<radialGradient id="SVGID_00000183938915307245212760000006320495451975046556_" cx="-1650.4006" cy="2.5474" r="1" gradientTransform="matrix(1032.84 0 0 222.968 1704828.25 -253.9986)" gradientUnits="userSpaceOnUse">
	<stop  offset="0" style="stop-color:#FFFFFF"/>
	<stop  offset="0.33" style="stop-color:#CBD5FF"/>
	<stop  offset="0.62" style="stop-color:#A2B4FF"/>
	<stop  offset="0.86" style="stop-color:#89A0FF"/>
	<stop  offset="1" style="stop-color:#8099FF"/>
</radialGradient>
<path style="fill:url(#SVGID_00000183938915307245212760000006320495451975046556_);" d="M156.3,360.9h-0.2
	c-2.6-0.4-5.3-0.5-7.9-0.1c-0.1,0-0.2,0-0.3,0s-0.2-0.1-0.3-0.2s-0.2-0.2-0.2-0.3c-0.1-0.1-0.1-0.2-0.1-0.3c0-0.2,0-0.5,0.2-0.7
	c0.1-0.2,0.4-0.3,0.6-0.3c2.8-0.4,5.7-0.3,8.5,0.1c0.2,0,0.5,0.1,0.6,0.3c0.1,0.2,0.2,0.4,0.2,0.7c0,0.2-0.2,0.5-0.3,0.6
	C156.8,360.9,156.5,361,156.3,360.9L156.3,360.9z"/>
<radialGradient id="SVGID_00000159461364782570670980000001159085848162295481_" cx="-1646.7444" cy="0.6391" r="1" gradientTransform="matrix(314.331 0 0 888.758 517800.8438 -396.8645)" gradientUnits="userSpaceOnUse">
	<stop  offset="0" style="stop-color:#FFFFFF"/>
	<stop  offset="0.33" style="stop-color:#CBD5FF"/>
	<stop  offset="0.62" style="stop-color:#A2B4FF"/>
	<stop  offset="0.86" style="stop-color:#89A0FF"/>
	<stop  offset="1" style="stop-color:#8099FF"/>
</radialGradient>
<path style="fill:url(#SVGID_00000159461364782570670980000001159085848162295481_);" d="M154.3,358.2c-0.2,0-0.4-0.1-0.6-0.2
	c-0.2-0.1-0.3-0.3-0.3-0.5c-0.4-2.5,0.1-5.1,1.2-7.4c0.1-0.1,0.1-0.2,0.2-0.3c0.1-0.1,0.2-0.1,0.3-0.2c0.1,0,0.2,0,0.4,0
	c0.1,0,0.2,0.1,0.4,0.1c0.1,0.1,0.2,0.1,0.3,0.2s0.1,0.2,0.2,0.3c0,0.1,0,0.2,0,0.4c0,0.1-0.1,0.2-0.2,0.3c-1,1.9-1.3,4.1-1,6.2
	c0,0.1,0,0.2,0,0.3c0,0.1-0.1,0.2-0.2,0.3c-0.1,0.1-0.2,0.2-0.3,0.2c-0.1,0.1-0.2,0.1-0.3,0.1L154.3,358.2z"/>
<radialGradient id="SVGID_00000106114710401692029500000000977214642136764588_" cx="-1650.8456" cy="1.616" r="1" gradientTransform="matrix(1430.95 0 0 351.473 2362541 -270.0641)" gradientUnits="userSpaceOnUse">
	<stop  offset="0" style="stop-color:#FFFFFF"/>
	<stop  offset="0.33" style="stop-color:#CBD5FF"/>
	<stop  offset="0.62" style="stop-color:#A2B4FF"/>
	<stop  offset="0.86" style="stop-color:#89A0FF"/>
	<stop  offset="1" style="stop-color:#8099FF"/>
</radialGradient>
<path style="fill:url(#SVGID_00000106114710401692029500000000977214642136764588_);" d="M163.8,371.9c-0.1,0-0.3,0-0.4-0.1
	c-4.6-2.3-11.6-1.3-11.6-1.3c-0.2,0-0.5,0-0.7-0.2c-0.2-0.1-0.3-0.4-0.3-0.6s0-0.5,0.2-0.7c0.1-0.2,0.3-0.3,0.6-0.3
	s7.6-1.1,12.7,1.6c0.1,0.1,0.2,0.1,0.3,0.2s0.1,0.2,0.2,0.3s0,0.2,0,0.3c0,0.1,0,0.2-0.1,0.3c-0.1,0.1-0.2,0.3-0.3,0.3
	C164.2,371.9,164,371.9,163.8,371.9z"/>
<radialGradient id="SVGID_00000029745538405080490650000002874667246714507162_" cx="-1647.5743" cy="0.4704" r="1" gradientTransform="matrix(373.276 0 0 1207.39 615195.1875 -445.1392)" gradientUnits="userSpaceOnUse">
	<stop  offset="0" style="stop-color:#FFFFFF"/>
	<stop  offset="0.33" style="stop-color:#CBD5FF"/>
	<stop  offset="0.62" style="stop-color:#A2B4FF"/>
	<stop  offset="0.86" style="stop-color:#89A0FF"/>
	<stop  offset="1" style="stop-color:#8099FF"/>
</radialGradient>
<path style="fill:url(#SVGID_00000029745538405080490650000002874667246714507162_);" d="M166.9,377c-0.2,0-0.4-0.1-0.6-0.2
	c-0.2-0.1-0.3-0.3-0.3-0.5c-0.5-3.6,0.1-7.3,1.8-10.5c0.1-0.2,0.3-0.4,0.6-0.4s0.5,0,0.7,0.1s0.3,0.3,0.4,0.6c0.1,0.2,0,0.5-0.1,0.7
	c-1.4,2.9-2,6.2-1.5,9.4c0,0.1,0,0.2,0,0.3c0,0.1-0.1,0.2-0.1,0.3c-0.1,0.1-0.2,0.2-0.3,0.2c-0.1,0.1-0.2,0.1-0.3,0.1h-0.3V377z"/>
<radialGradient id="SVGID_00000013909426210922959260000001277655736350564237_" cx="-1650.8958" cy="1.5622" r="1" gradientTransform="matrix(1496 0 0 363.582 2470021 -243.8351)" gradientUnits="userSpaceOnUse">
	<stop  offset="0" style="stop-color:#FFFFFF"/>
	<stop  offset="0.33" style="stop-color:#CBD5FF"/>
	<stop  offset="0.62" style="stop-color:#A2B4FF"/>
	<stop  offset="0.86" style="stop-color:#89A0FF"/>
	<stop  offset="1" style="stop-color:#8099FF"/>
</radialGradient>
<path style="fill:url(#SVGID_00000013909426210922959260000001277655736350564237_);" d="M176.7,400.6c-0.1,0-0.3,0-0.4,0
	c-4.8-2.5-12.2-1.5-12.2-1.5c-0.2,0-0.5,0-0.7-0.2c-0.2-0.1-0.3-0.4-0.4-0.6c0-0.2,0-0.5,0.2-0.7c0.1-0.2,0.3-0.3,0.6-0.3
	s8-1.1,13.3,1.6c0.2,0.1,0.3,0.2,0.4,0.4c0.1,0.2,0.1,0.4,0.1,0.6s-0.2,0.4-0.3,0.5C177.1,400.6,176.9,400.7,176.7,400.6
	L176.7,400.6z"/>
<radialGradient id="SVGID_00000113333568096589815640000002939006438304886975_" cx="-1647.608" cy="0.4505" r="1" gradientTransform="matrix(376.136 0 0 1260.78 619927.3125 -439.4658)" gradientUnits="userSpaceOnUse">
	<stop  offset="0" style="stop-color:#FFFFFF"/>
	<stop  offset="0.33" style="stop-color:#CBD5FF"/>
	<stop  offset="0.62" style="stop-color:#A2B4FF"/>
	<stop  offset="0.86" style="stop-color:#89A0FF"/>
	<stop  offset="1" style="stop-color:#8099FF"/>
</radialGradient>
<path style="fill:url(#SVGID_00000113333568096589815640000002939006438304886975_);" d="M174.1,393.9c-0.2,0-0.4-0.1-0.6-0.2
	c-0.2-0.1-0.3-0.3-0.3-0.5c-0.6-3.8,0-7.7,1.8-11.1c0.1-0.2,0.3-0.3,0.5-0.4s0.5,0,0.7,0.1s0.3,0.3,0.4,0.5c0.1,0.2,0,0.5-0.1,0.7
	c-1.5,3.1-2,6.5-1.5,9.9c0,0.2,0,0.5-0.2,0.7s-0.3,0.3-0.6,0.4h-0.1V393.9z"/>
<linearGradient id="SVGID_00000158726477196199401970000016105546648697079946_" gradientUnits="userSpaceOnUse" x1="491.9017" y1="1025.7909" x2="2747.0496" y2="1660.0605" gradientTransform="matrix(1 0 0 1 0 -568)">
	<stop  offset="0" style="stop-color:#67DD72"/>
	<stop  offset="1" style="stop-color:#4C5FC2"/>
</linearGradient>
<path style="fill:url(#SVGID_00000158726477196199401970000016105546648697079946_);" d="M209.4,407.9c2.7-21.7,2.5-49.3-3.6-69.3
	c-3-10.9-8-21.2-14.9-30.2c-1.9,2-4.1,3.7-6.4,5.2c1.6-2.8,2.6-5.9,3.2-9.1c-7.7-8.6-15.8-13.2-21-13.2c-7.2,0-9.6,7.8-5.7,24.1
	c4.7,4.8,10.8,8,17.5,9c-5.2,0.2-10.4-0.3-15.4-1.3c2,6.7,4.9,14.3,8.5,23.3c14.4,38,16.2,63.4,16.5,79.1c0,15.7-1.4,21.8-1.4,21.9
	c5-0.7,10-1.3,15-1.8C205.3,433.3,207.9,420.7,209.4,407.9z"/>
<radialGradient id="SVGID_00000147192102404733371570000000792469342715078312_" cx="-1651.3823" cy="4.019303e-02" r="1" gradientTransform="matrix(2674.3999 0 0 14120.5996 4416842 -3094.2891)" gradientUnits="userSpaceOnUse">
	<stop  offset="0" style="stop-color:#FFFFFF"/>
	<stop  offset="0.33" style="stop-color:#CBD5FF"/>
	<stop  offset="0.62" style="stop-color:#A2B4FF"/>
	<stop  offset="0.86" style="stop-color:#89A0FF"/>
	<stop  offset="1" style="stop-color:#8099FF"/>
</radialGradient>
<path style="fill:url(#SVGID_00000147192102404733371570000000792469342715078312_);" d="M193.4,445.9h-0.2
	c-0.2-0.1-0.4-0.2-0.5-0.4c-0.1-0.2-0.2-0.4-0.1-0.7c21.4-81-17.2-134.5-17.6-135c-0.1-0.1-0.1-0.2-0.2-0.3c0-0.1,0-0.2,0-0.4
	c0-0.1,0.1-0.2,0.1-0.3c0.1-0.1,0.1-0.2,0.2-0.3c0.2-0.1,0.4-0.2,0.7-0.2s0.4,0.2,0.6,0.4c0.4,0.5,39.5,54.7,17.9,136.5
	c-0.1,0.2-0.2,0.4-0.3,0.5C193.8,445.8,193.6,445.9,193.4,445.9z"/>
<radialGradient id="SVGID_00000061472659945446015880000002220469566984257435_" cx="-1650.6376" cy="1.1596" r="1" gradientTransform="matrix(1212.65 0 0 489.838 2001919 -335.9956)" gradientUnits="userSpaceOnUse">
	<stop  offset="0" style="stop-color:#FFFFFF"/>
	<stop  offset="0.33" style="stop-color:#CBD5FF"/>
	<stop  offset="0.62" style="stop-color:#A2B4FF"/>
	<stop  offset="0.86" style="stop-color:#89A0FF"/>
	<stop  offset="1" style="stop-color:#8099FF"/>
</radialGradient>
<path style="fill:url(#SVGID_00000061472659945446015880000002220469566984257435_);" d="M188.5,335.1c-0.1,0-0.3,0-0.4-0.1
	c-3.1-1.4-6.4-2.4-9.7-2.9c-0.2,0-0.4-0.2-0.6-0.3c-0.1-0.2-0.2-0.4-0.2-0.7c0-0.2,0.2-0.4,0.4-0.6c0.2-0.1,0.4-0.2,0.7-0.2
	c3.6,0.5,7,1.6,10.3,3.1c0.1,0.1,0.2,0.1,0.3,0.2s0.1,0.2,0.2,0.3c0,0.1,0,0.2,0,0.3c0,0.1,0,0.2-0.1,0.3c-0.1,0.1-0.2,0.3-0.3,0.3
	C188.8,335,188.6,335.1,188.5,335.1z"/>
<radialGradient id="SVGID_00000170275824451329429280000018060721492559481745_" cx="-1649.08" cy="0.5661" r="1" gradientTransform="matrix(565.762 0 0 1003.3 933217.5 -448.1028)" gradientUnits="userSpaceOnUse">
	<stop  offset="0" style="stop-color:#FFFFFF"/>
	<stop  offset="0.33" style="stop-color:#CBD5FF"/>
	<stop  offset="0.62" style="stop-color:#A2B4FF"/>
	<stop  offset="0.86" style="stop-color:#89A0FF"/>
	<stop  offset="1" style="stop-color:#8099FF"/>
</radialGradient>
<path style="fill:url(#SVGID_00000170275824451329429280000018060721492559481745_);" d="M186.9,331h-0.1c-0.1,0-0.2-0.1-0.3-0.1
	c-0.1-0.1-0.2-0.1-0.3-0.2s-0.1-0.2-0.1-0.3c0-0.1,0-0.2,0-0.3c0.4-3.2,1.8-6.1,4-8.5c0.1-0.1,0.2-0.2,0.3-0.2s0.2-0.1,0.3-0.1
	s0.2,0,0.3,0.1c0.1,0,0.2,0.1,0.3,0.2s0.2,0.2,0.2,0.3s0.1,0.2,0.1,0.3c0,0.1,0,0.2-0.1,0.3s-0.1,0.2-0.2,0.3
	c-1.9,2.1-3.1,4.7-3.4,7.4c0,0.2-0.1,0.4-0.3,0.6C187.4,330.9,187.2,331,186.9,331z"/>
<radialGradient id="SVGID_00000000210337512939086240000009512293260439304597_" cx="-1651.0084" cy="0.7062" r="1" gradientTransform="matrix(1665.9301 0 0 804.188 2750774.25 -385.9512)" gradientUnits="userSpaceOnUse">
	<stop  offset="0" style="stop-color:#FFFFFF"/>
	<stop  offset="0.33" style="stop-color:#CBD5FF"/>
	<stop  offset="0.62" style="stop-color:#A2B4FF"/>
	<stop  offset="0.86" style="stop-color:#89A0FF"/>
	<stop  offset="1" style="stop-color:#8099FF"/>
</radialGradient>
<path style="fill:url(#SVGID_00000000210337512939086240000009512293260439304597_);" d="M193.9,351.3c-0.2,0-0.5-0.1-0.6-0.2
	c-4.9-4.6-13.9-5.8-13.9-5.8c-0.2,0-0.4-0.2-0.6-0.3c-0.1-0.2-0.2-0.4-0.2-0.7c0-0.1,0-0.2,0.1-0.3c0.1-0.1,0.1-0.2,0.2-0.3
	c0.1-0.1,0.2-0.1,0.3-0.2c0.1,0,0.2,0,0.4,0c0.4,0,9.7,1.3,15,6.3c0.1,0.1,0.2,0.2,0.2,0.3c0,0.1,0.1,0.2,0.1,0.3s0,0.2-0.1,0.3
	s-0.1,0.2-0.2,0.3c-0.1,0.1-0.2,0.2-0.3,0.2S194,351.3,193.9,351.3z"/>
<radialGradient id="SVGID_00000082328606293191363310000004189524721965736585_" cx="-1649.788" cy="0.4091" r="1" gradientTransform="matrix(746.835 0 0 1388.4 1232373.25 -501.6694)" gradientUnits="userSpaceOnUse">
	<stop  offset="0" style="stop-color:#FFFFFF"/>
	<stop  offset="0.33" style="stop-color:#CBD5FF"/>
	<stop  offset="0.62" style="stop-color:#A2B4FF"/>
	<stop  offset="0.86" style="stop-color:#89A0FF"/>
	<stop  offset="1" style="stop-color:#8099FF"/>
</radialGradient>
<path style="fill:url(#SVGID_00000082328606293191363310000004189524721965736585_);" d="M195.9,358.5h-0.1c-0.2,0-0.4-0.2-0.6-0.4
	c-0.1-0.2-0.2-0.4-0.2-0.7c0.6-4.6,2.6-8.9,5.7-12.2c0.1-0.1,0.2-0.2,0.3-0.2s0.2-0.1,0.3-0.1s0.2,0,0.3,0.1c0.1,0,0.2,0.1,0.3,0.2
	s0.1,0.2,0.2,0.3c0,0.1,0.1,0.2,0.1,0.3s0,0.2-0.1,0.3c0,0.1-0.1,0.2-0.2,0.3c-2.8,3.1-4.7,7-5.2,11.2c0,0.2-0.1,0.4-0.3,0.6
	S196.1,358.5,195.9,358.5z"/>
<radialGradient id="SVGID_00000144335971164671641150000015477990772585920160_" cx="-1651.0533" cy="0.6798" r="1" gradientTransform="matrix(1744.99 0 0 835.472 2881392.5 -352.8875)" gradientUnits="userSpaceOnUse">
	<stop  offset="0" style="stop-color:#FFFFFF"/>
	<stop  offset="0.33" style="stop-color:#CBD5FF"/>
	<stop  offset="0.62" style="stop-color:#A2B4FF"/>
	<stop  offset="0.86" style="stop-color:#89A0FF"/>
	<stop  offset="1" style="stop-color:#8099FF"/>
</radialGradient>
<path style="fill:url(#SVGID_00000144335971164671641150000015477990772585920160_);" d="M199.8,391c-0.2,0-0.5-0.1-0.6-0.2
	c-5.1-4.8-14.6-6.1-14.7-6.1c-0.2,0-0.4-0.2-0.6-0.3c-0.1-0.2-0.2-0.4-0.2-0.7c0-0.2,0.2-0.4,0.3-0.6c0.2-0.1,0.4-0.2,0.7-0.2
	c0.4,0,10.2,1.4,15.7,6.6c0.1,0.1,0.2,0.2,0.2,0.3c0,0.1,0.1,0.2,0.1,0.3c0,0.1,0,0.2-0.1,0.3c0,0.1-0.1,0.2-0.2,0.3
	c-0.1,0.1-0.2,0.2-0.3,0.2C200,390.9,199.9,390.9,199.8,391z"/>
<radialGradient id="SVGID_00000093855620334660171050000012579736842958459068_" cx="-1649.8668" cy="0.3914" r="1" gradientTransform="matrix(774.432 0 0 1450.88 1277968.75 -491.4839)" gradientUnits="userSpaceOnUse">
	<stop  offset="0" style="stop-color:#FFFFFF"/>
	<stop  offset="0.33" style="stop-color:#CBD5FF"/>
	<stop  offset="0.62" style="stop-color:#A2B4FF"/>
	<stop  offset="0.86" style="stop-color:#89A0FF"/>
	<stop  offset="1" style="stop-color:#8099FF"/>
</radialGradient>
<path style="fill:url(#SVGID_00000093855620334660171050000012579736842958459068_);" d="M198.9,381.9h-0.1c-0.2,0-0.4-0.2-0.6-0.3
	c-0.1-0.2-0.2-0.4-0.2-0.7c0.6-4.8,2.7-9.3,6-12.9c0.1-0.1,0.2-0.2,0.3-0.2s0.2-0.1,0.3-0.1s0.2,0,0.3,0.1c0.1,0,0.2,0.1,0.3,0.2
	s0.2,0.2,0.2,0.3c0,0.1,0.1,0.2,0.1,0.3c0,0.1,0,0.2-0.1,0.3c0,0.1-0.1,0.2-0.2,0.3c-3,3.3-4.9,7.4-5.5,11.8c0,0.2-0.1,0.4-0.3,0.6
	C199.4,381.8,199.2,381.9,198.9,381.9z"/>
<path class="st29" d="M203.3,411c2.6-16.9,8.6-37.6,17.4-51.4c4.5-7.6,10.5-14.2,17.6-19.5c1,1.9,2.3,3.7,3.7,5.3
	c-0.6-2.5-0.7-5-0.4-7.5c7.6-4.8,14.7-6.6,18.6-5.5c5.4,1.5,5.6,7.9-0.8,19.4c-4.6,2.6-9.8,3.7-15,3c3.9,1.2,7.8,2,11.9,2.3
	c-3.5,5.4-7.2,10.6-11.3,15.7c-18.9,25.6-25.7,44.3-29.3,56s-3.6,16.7-3.6,16.8c-3.6-1.6-7.3-3.1-11-4.5
	C201,431,201.7,421,203.3,411z"/>
<radialGradient id="SVGID_00000024000275717558046880000000235864431475328137_" cx="-1651.6348" cy="5.522564e-02" r="1" gradientTransform="matrix(4522.3901 0 0 10275.7998 7469899.5 -2287.6445)" gradientUnits="userSpaceOnUse">
	<stop  offset="0" style="stop-color:#FFFFFF"/>
	<stop  offset="0.33" style="stop-color:#CBD5FF"/>
	<stop  offset="0.62" style="stop-color:#A2B4FF"/>
	<stop  offset="0.86" style="stop-color:#89A0FF"/>
	<stop  offset="1" style="stop-color:#8099FF"/>
</radialGradient>
<path style="fill:url(#SVGID_00000024000275717558046880000000235864431475328137_);" d="M207.3,443.2c-0.1,0-0.2,0-0.3-0.1
	c-0.1,0-0.2-0.1-0.3-0.2s-0.1-0.2-0.2-0.3c0-0.1-0.1-0.2-0.1-0.3c1.2-66.2,42.2-98.7,42.6-99c0.2-0.1,0.4-0.2,0.7-0.2
	c0.2,0,0.4,0.1,0.6,0.3c0.1,0.1,0.1,0.2,0.2,0.3c0,0.1,0,0.2,0,0.3c0,0.1-0.1,0.2-0.1,0.3c-0.1,0.1-0.1,0.2-0.2,0.3
	c-0.4,0.3-40.7,32.2-41.8,97.6c0,0.1,0,0.2-0.1,0.3c-0.1,0.1-0.1,0.2-0.2,0.3c-0.1,0.1-0.2,0.1-0.3,0.2
	C207.6,443.2,207.5,443.2,207.3,443.2z"/>
<radialGradient id="SVGID_00000070090229778258717020000009156055936009927809_" cx="-1650.4006" cy="2.5479" r="1" gradientTransform="matrix(1032.84 0 0 222.93 1704914.625 -254.0085)" gradientUnits="userSpaceOnUse">
	<stop  offset="0" style="stop-color:#FFFFFF"/>
	<stop  offset="0.33" style="stop-color:#CBD5FF"/>
	<stop  offset="0.62" style="stop-color:#A2B4FF"/>
	<stop  offset="0.86" style="stop-color:#89A0FF"/>
	<stop  offset="1" style="stop-color:#8099FF"/>
</radialGradient>
<path style="fill:url(#SVGID_00000070090229778258717020000009156055936009927809_);" d="M234.7,360.9c-0.2,0-0.5,0-0.7-0.2
	c-0.2-0.1-0.3-0.4-0.3-0.6s0-0.5,0.2-0.7c0.1-0.2,0.4-0.3,0.6-0.3c2.8-0.5,5.7-0.5,8.5-0.1c0.2,0,0.4,0.2,0.6,0.3
	c0.1,0.2,0.2,0.4,0.2,0.7c0,0.2-0.2,0.4-0.3,0.6c-0.2,0.1-0.4,0.2-0.7,0.2c-2.6-0.3-5.2-0.3-7.8,0.1H234.7z"/>
<radialGradient id="SVGID_00000031196400488276578160000001302104519207067047_" cx="-1646.582" cy="0.6523" r="1" gradientTransform="matrix(304.908 0 0 870.711 502314.75 -393.0173)" gradientUnits="userSpaceOnUse">
	<stop  offset="0" style="stop-color:#FFFFFF"/>
	<stop  offset="0.33" style="stop-color:#CBD5FF"/>
	<stop  offset="0.62" style="stop-color:#A2B4FF"/>
	<stop  offset="0.86" style="stop-color:#89A0FF"/>
	<stop  offset="1" style="stop-color:#8099FF"/>
</radialGradient>
<path style="fill:url(#SVGID_00000031196400488276578160000001302104519207067047_);" d="M236.7,358.2h-0.1c-0.1,0-0.2-0.1-0.3-0.1
	c-0.1-0.1-0.2-0.1-0.3-0.2s-0.1-0.2-0.2-0.3c0-0.1,0-0.2,0-0.3c0.3-2.1,0-4.3-1-6.2c-0.1-0.2-0.1-0.4,0-0.6s0.2-0.4,0.4-0.5
	s0.4-0.1,0.6-0.1c0.2,0,0.4,0.2,0.5,0.3c1.2,2.3,1.6,4.8,1.2,7.4c0,0.2-0.1,0.4-0.3,0.5C237.1,358.1,236.9,358.2,236.7,358.2z"/>
<radialGradient id="SVGID_00000161630340162884782020000013252377641550101165_" cx="-1650.8462" cy="1.5896" r="1" gradientTransform="matrix(1431.76 0 0 357.317 2363954.75 -271.2584)" gradientUnits="userSpaceOnUse">
	<stop  offset="0" style="stop-color:#FFFFFF"/>
	<stop  offset="0.33" style="stop-color:#CBD5FF"/>
	<stop  offset="0.62" style="stop-color:#A2B4FF"/>
	<stop  offset="0.86" style="stop-color:#89A0FF"/>
	<stop  offset="1" style="stop-color:#8099FF"/>
</radialGradient>
<path style="fill:url(#SVGID_00000161630340162884782020000013252377641550101165_);" d="M227.1,371.9c-0.2,0-0.3,0-0.5-0.1
	c-0.1-0.1-0.3-0.2-0.3-0.4c-0.1-0.2-0.1-0.5-0.1-0.7c0.1-0.2,0.2-0.4,0.4-0.5c5.1-2.6,12.4-1.6,12.7-1.6c0.2,0,0.4,0.2,0.6,0.3
	c0.1,0.2,0.2,0.4,0.2,0.7c0,0.2-0.2,0.4-0.4,0.6c-0.2,0.1-0.4,0.2-0.7,0.2c0,0-7-1-11.6,1.4C227.4,371.9,227.3,371.9,227.1,371.9z"
	/>
<radialGradient id="SVGID_00000034067590544849086040000014813201429738805911_" cx="-1647.575" cy="0.4709" r="1" gradientTransform="matrix(373.33 0 0 1206.11 615340.125 -444.8608)" gradientUnits="userSpaceOnUse">
	<stop  offset="0" style="stop-color:#FFFFFF"/>
	<stop  offset="0.33" style="stop-color:#CBD5FF"/>
	<stop  offset="0.62" style="stop-color:#A2B4FF"/>
	<stop  offset="0.86" style="stop-color:#89A0FF"/>
	<stop  offset="1" style="stop-color:#8099FF"/>
</radialGradient>
<path style="fill:url(#SVGID_00000034067590544849086040000014813201429738805911_);" d="M224.1,377H224c-0.2,0-0.4-0.2-0.6-0.4
	c-0.1-0.2-0.2-0.4-0.2-0.7c0.5-3.2-0.1-6.5-1.5-9.4c-0.1-0.2-0.2-0.5-0.1-0.7c0.1-0.2,0.2-0.4,0.4-0.6c0.1-0.1,0.2-0.1,0.3-0.1
	s0.2,0,0.3,0s0.2,0.1,0.3,0.2s0.2,0.2,0.2,0.3c1.7,3.2,2.3,6.9,1.8,10.5c0,0.2-0.1,0.4-0.3,0.5C224.5,376.9,224.3,377,224.1,377z"/>
<radialGradient id="SVGID_00000129928137288342455350000005789426451502423966_" cx="-1650.8971" cy="1.5524" r="1" gradientTransform="matrix(1497.9399 0 0 365.867 2473276.25 -244.4167)" gradientUnits="userSpaceOnUse">
	<stop  offset="0" style="stop-color:#FFFFFF"/>
	<stop  offset="0.33" style="stop-color:#CBD5FF"/>
	<stop  offset="0.62" style="stop-color:#A2B4FF"/>
	<stop  offset="0.86" style="stop-color:#89A0FF"/>
	<stop  offset="1" style="stop-color:#8099FF"/>
</radialGradient>
<path style="fill:url(#SVGID_00000129928137288342455350000005789426451502423966_);" d="M214.3,400.6c-0.2,0-0.3,0-0.5-0.1
	c-0.1-0.1-0.3-0.2-0.3-0.4c-0.1-0.2-0.1-0.5-0.1-0.7c0.1-0.2,0.2-0.4,0.4-0.5c5.4-2.8,13-1.7,13.3-1.6c0.2,0,0.4,0.2,0.6,0.3
	c0.1,0.2,0.2,0.4,0.2,0.7c0,0.2-0.2,0.4-0.4,0.6c-0.2,0.1-0.4,0.2-0.7,0.2c0,0-7.4-1-12.2,1.5C214.6,400.6,214.4,400.6,214.3,400.6z
	"/>
<radialGradient id="SVGID_00000050622874814140696490000001673483295061140671_" cx="-1647.5952" cy="0.4505" r="1" gradientTransform="matrix(375.042 0 0 1260.78 618161.1875 -439.4658)" gradientUnits="userSpaceOnUse">
	<stop  offset="0" style="stop-color:#FFFFFF"/>
	<stop  offset="0.33" style="stop-color:#CBD5FF"/>
	<stop  offset="0.62" style="stop-color:#A2B4FF"/>
	<stop  offset="0.86" style="stop-color:#89A0FF"/>
	<stop  offset="1" style="stop-color:#8099FF"/>
</radialGradient>
<path style="fill:url(#SVGID_00000050622874814140696490000001673483295061140671_);" d="M216.8,393.9h-0.1c-0.2,0-0.4-0.2-0.6-0.4
	s-0.2-0.4-0.2-0.7c0.5-3.4-0.1-6.9-1.6-9.9c-0.1-0.2-0.1-0.4-0.1-0.7c0.1-0.2,0.2-0.4,0.4-0.5s0.4-0.2,0.7-0.1
	c0.2,0.1,0.4,0.2,0.5,0.4c1.7,3.4,2.4,7.3,1.8,11.1c0,0.2-0.1,0.4-0.3,0.5C217.3,393.8,217.1,393.9,216.8,393.9z"/>
<path class="st37" d="M215.2,507.7h-41c-1.3,0-2.6-0.5-3.6-1.3c-1-0.9-1.7-2-1.9-3.4l-10-57.9c-0.1-0.8-0.1-1.6,0.1-2.4
	c0.2-0.8,0.6-1.5,1.1-2.2c0.5-0.6,1.2-1.1,1.9-1.5c0.7-0.3,1.6-0.5,2.4-0.5h61.1c0.8,0,1.6,0.2,2.4,0.5c0.7,0.3,1.4,0.9,1.9,1.5
	s0.9,1.4,1.1,2.2c0.2,0.8,0.3,1.6,0.1,2.4l-10,57.9c-0.2,1.3-0.9,2.5-1.9,3.3C217.8,507.3,216.5,507.7,215.2,507.7z"/>
<path class="st38" d="M231.1,430.6h-72.8c-3.1,0-5.7,2.5-5.7,5.7v10.6c0,3.1,2.5,5.7,5.7,5.7h72.8c3.1,0,5.7-2.5,5.7-5.7v-10.6
	C236.8,433.2,234.2,430.6,231.1,430.6z"/>
<path class="st39" d="M231.1,430.6h-12.8c-3.4,16.3-8.3,32.4-16.5,47c-6.6,11.6-15.4,21.9-25.9,30.1h39.4c1.3,0,2.6-0.5,3.6-1.3
	c1-0.9,1.7-2,1.9-3.4l8.7-50.5h1.5c1.5,0,2.9-0.6,4-1.7s1.7-2.5,1.7-4v-10.5c0-0.8-0.1-1.5-0.4-2.2c-0.3-0.7-0.7-1.3-1.2-1.9
	c-0.5-0.5-1.2-1-1.8-1.3C232.6,430.8,231.9,430.6,231.1,430.6z"/>
<g>
	<circle class="st4" cx="69.8" cy="187.9" r="1.3"/>
</g>
<g>
	<path class="st6" d="M71.9,184.6c-0.1,0-0.3,0-0.4-0.1c-0.7-0.5-2.9-1.7-4.1-0.9c-0.3,0.2-0.7,0.1-0.9-0.2
		c-0.2-0.3-0.1-0.7,0.2-0.9c2.1-1.3,5.2,0.7,5.5,1c0.3,0.2,0.4,0.6,0.2,0.9C72.3,184.5,72.1,184.6,71.9,184.6z"/>
</g>
<g>
	<circle class="st4" cx="59.6" cy="187.9" r="1.3"/>
</g>
<g>
	<path class="st6" d="M57.6,184c-0.2,0-0.4-0.1-0.5-0.3c-0.2-0.3,0-0.7,0.3-0.9c0.4-0.2,3.7-1.9,5.6-0.3c0.3,0.2,0.3,0.6,0.1,0.9
		c-0.2,0.3-0.6,0.3-0.9,0.1c-1.1-0.9-3.4,0-4.2,0.5C57.9,184,57.8,184,57.6,184z"/>
</g>
<g>
	<path class="st40" d="M56.4,194.8c0,1.5,2.5,5.2,6.2,5.2s5.9-3.7,5.9-5.2c0-0.3-0.4,0-1.3,0.4c-1,0.4-2.5,0.9-4.8,0.9
		c-1.9,0-3.3-0.4-4.3-0.8C56.9,194.9,56.4,194.4,56.4,194.8z"/>
</g>
<g>
	<path class="st41" d="M58.1,195.3c0.2,1.4,2.2,2.5,4.5,2.5c2.4,0,4.4-1.2,4.5-2.7c-1,0.4-2.5,0.9-4.8,0.9
		C60.5,196.1,59.1,195.7,58.1,195.3z"/>
</g>
</svg>
