<?xml version="1.0" encoding="utf-8"?>
<!-- Generator: Adobe Illustrator 26.0.3, SVG Export Plug-In . SVG Version: 6.00 Build 0)  -->
<svg version="1.1" id="Capa_1" xmlns="http://www.w3.org/2000/svg" xmlns:xlink="http://www.w3.org/1999/xlink" x="0px" y="0px"
	 viewBox="0 0 317 487" style="enable-background:new 0 0 317 487;" xml:space="preserve">
<style type="text/css">
	.st0{opacity:0.75;}
	.st1{fill:none;}
	.st2{fill:#67DD72;}
	.st3{fill-rule:evenodd;clip-rule:evenodd;fill:#FFFFFF;}
	.st4{fill:#F5BBA7;}
	.st5{fill:#F5C3B8;}
	.st6{fill:#1A2E4E;}
	.st7{fill:#6E7ABA;}
	.st8{fill:#0D4593;}
	.st9{fill:#014B82;}
	.st10{fill:#54C55F;}
	.st11{fill:url(#SVGID_1_);}
	.st12{fill:url(#SVGID_00000183220230967266832420000015447952938193774504_);}
	.st13{fill:url(#SVGID_00000070118314025389061940000003170717138485702565_);}
	.st14{fill:url(#SVGID_00000092454523035768957380000009774463684172105393_);}
	.st15{fill:url(#SVGID_00000106858715968290255800000006319750580132114583_);}
	.st16{fill:url(#SVGID_00000002380511428188674660000018156517522832410031_);}
	.st17{fill:url(#SVGID_00000049193161550530844150000005134456362746679976_);}
	.st18{fill:url(#SVGID_00000035494607306573252800000004184730211403063937_);}
	.st19{fill:url(#SVGID_00000123431388692880962100000004596944451586178214_);}
	.st20{fill:url(#SVGID_00000154417053423965263700000009598797865319700867_);}
	.st21{fill:url(#SVGID_00000000933368630568454090000017549072354453088393_);}
	.st22{fill:url(#SVGID_00000050635790415634380050000009884844156037332633_);}
	.st23{fill:url(#SVGID_00000160185966280481901440000005665507227535754923_);}
	.st24{fill:url(#SVGID_00000144323325749741751190000017422150691294580412_);}
	.st25{fill:url(#SVGID_00000029755934042144217900000007859855997857717136_);}
	.st26{fill:#91E899;}
	.st27{fill:url(#SVGID_00000168806458265135707830000010629000575524663450_);}
	.st28{fill:url(#SVGID_00000057127450946507849370000016430938092209716150_);}
	.st29{fill:url(#SVGID_00000118370302446182114360000016542925709563669426_);}
	.st30{fill:url(#SVGID_00000054962323614790225210000002146505324353111680_);}
	.st31{fill:url(#SVGID_00000121279374399514429740000003745604705261957016_);}
	.st32{fill:url(#SVGID_00000039117482506740969310000017243391117640632216_);}
	.st33{fill:url(#SVGID_00000041287885981039523480000013691036549354377869_);}
	.st34{fill:#154ACE;}
	.st35{fill:#8099FF;}
	.st36{fill:#A2B4FF;}
	.st37{fill:#58223B;}
	.st38{fill:#963248;}
	.st39{fill:#D2B3B7;}
</style>
<g class="st0">
	<rect x="0.1" y="0.6" class="st1" width="235.2" height="196.1"/>
</g>
<path class="st2" d="M69.3,50.6h100.8c3.6,0,7.1,1.4,9.6,4c2.6,2.6,4,6,4,9.6V140l-11.9-15.3H69.3c-3.6,0-7.1-1.4-9.6-4
	c-2.6-2.6-4-6-4-9.6V64.3c0-3.6,1.4-7.1,4-9.6C62.2,52.1,65.7,50.6,69.3,50.6z"/>
<path class="st3" d="M92.3,67.3c0.6-0.5,1.2-0.8,2-1.1c1.5-0.5,3.1-0.4,4.5,0.2c0.7,0.3,1.3,0.7,1.8,1.3l5.7,6.2
	c0.5,0.5,0.9,1.2,1,1.9c0.2,0.7,0.2,1.4,0,2.1l-1.7,5.8c-0.1,0.3-0.1,0.6,0,0.9s0.3,0.6,0.6,0.8L114,92c0.3,0.2,0.6,0.4,0.9,0.5
	c0.4,0.1,0.7,0.1,1.1,0l6.9-1.5c0.8-0.2,1.7-0.2,2.5,0c0.8,0.1,1.6,0.4,2.2,0.9l7.3,4.8c0.6,0.3,1.1,0.8,1.5,1.4s0.6,1.3,0.6,1.9
	c0.1,0.7-0.1,1.4-0.4,2c-0.3,0.6-0.7,1.2-1.3,1.6l-3.3,2.8c-1.3,1-2.7,1.7-4.3,2.1c-1.6,0.3-3.2,0.2-4.8-0.2
	c-8.1-2.4-15.7-6.4-22.2-11.8c-6.1-5-10.9-11.4-14-18.7c-0.5-1.3-0.6-2.8-0.2-4.2c0.4-1.4,1.2-2.6,2.4-3.5L92.3,67.3z M126.4,67.7
	c0.2-0.1,0.3-0.2,0.5-0.3c0.4-0.1,0.8-0.1,1.2,0c0.2,0.1,0.4,0.2,0.5,0.3l7.9,6.7c0.1,0.1,0.3,0.3,0.3,0.4c0.1,0.2,0.1,0.3,0.1,0.5
	s0,0.4-0.1,0.5c-0.1,0.2-0.2,0.3-0.3,0.4l-7.9,6.7c-0.3,0.3-0.7,0.4-1.1,0.4s-0.8-0.1-1.1-0.4c-0.2-0.1-0.3-0.3-0.4-0.4
	c-0.1-0.2-0.1-0.4-0.1-0.5c0-0.2,0.1-0.4,0.1-0.5c0.1-0.2,0.2-0.3,0.3-0.4l5.2-4.4h-15.1c-0.4,0-0.8-0.1-1.1-0.4
	c-0.1-0.1-0.3-0.3-0.3-0.4s-0.1-0.3-0.1-0.5s0-0.4,0.1-0.5c0.1-0.2,0.2-0.3,0.3-0.4c0.3-0.3,0.7-0.4,1.1-0.4h15.2l-5.2-4.4
	c-0.1-0.1-0.3-0.3-0.3-0.4c-0.1-0.2-0.1-0.3-0.1-0.5s0-0.4,0.1-0.5C126.2,67.9,126.3,67.8,126.4,67.7L126.4,67.7z"/>
<path class="st4" d="M180.5,160.4h-0.3C180.2,160.4,180.5,160.1,180.5,160.4z"/>
<polygon class="st4" points="199.8,200.6 189.4,200.6 185.7,216.6 199.8,216.6 "/>
<path class="st4" d="M195.9,201.9c-2.5-1.6-9.3,3.6-11,1.9c-2.2-2.3-3.7-4.6-4.6-6.9c-0.3-0.8-0.6-1.6-0.7-2.4
	c-0.2-0.7-0.3-1.3-0.4-2c-0.6-5.2-2.2-7.8,2.3-10.3c0.2-0.1,0.4-2,0.6-4.1c0-0.5,0.1-1,0.1-1.5c0.2-2.3,0.3-4.5,0.5-4.7
	c0.8-1.3,1.1-1.8,1.1-2.1l18.4,3C202.2,172.8,220.2,217.6,195.9,201.9z"/>
<path class="st5" d="M223,265.7c0,0,12.6-19.1,12.7-21.7c0.1-2.6-9-10.6-9-10.6l14.9-7.8c0,0,8.3,7,6.7,16.9s-22.6,29.9-22.6,29.9
	L223,265.7z"/>
<path class="st6" d="M109.8,189.7L97.9,189l7.5,26.7l13.5,2.4L109.8,189.7z"/>
<path class="st5" d="M167,232.1c0,0-13,8.8-22.6,9.1c-9.5,0.4-25.1-20.6-25.1-20.6s-23.5-5.8-21.3-11.8c2.2-5.9,16.7,0,16.7,0
	l9.1,6.1l20.5,15.5l18.7-8.2L167,232.1z"/>
<path class="st7" d="M183.2,271.3l-11.7-36.9l-10.3,5.5l-5.8-15.2c0,0,14.1-16.8,24.8-15.3s19.3,2,19.3,2l26.3,17.7v38.5
	C225.7,267.7,194.3,276.9,183.2,271.3z"/>
<path class="st5" d="M185.2,469l-5.6-132.8l22.8,2.5l-4.1,52.7c0,0,2.5,48.7-7.4,77.6L185.2,469z"/>
<path class="st5" d="M212.2,336.2c0,0,13.1,46.1,18.2,48.2c5.1,2,72,40.6,72,40.6l3.6-4.6c0,0-46.2-49.4-65.2-51.7l-2.2-32.4
	L212.2,336.2z"/>
<path class="st8" d="M164.2,485.6c0,0-0.7-2.5,2.9-7c3.5-4.6,10.4,1.1,12.5-2.9c1.5-2.9,5.5-9.5,5.5-9.5h6.8c0,0,4.2,17.2,0,19.4
	C187.6,487.8,164.2,485.6,164.2,485.6z"/>
<path class="st8" d="M295.1,451.9l-3.4-6.8l6.1-10.3l4.6-9.8l3.6-6.5c0,0,13.4,6.5,9.8,12.9C312.2,437.8,295.1,451.9,295.1,451.9z"
	/>
<path class="st9" d="M179.8,364.5l64.7-3c0,0-1-83.1-18.8-93.8c-17.7-10.7-42.6,3.6-42.6,3.6S175.4,306.2,179.8,364.5z"/>
<path class="st9" d="M189.1,183.4c0,0-14.2-16.2-5.1-19.3c9.1-3,19.3-7.1,24.3,6.1c1.1-0.3,2.2-0.3,3.4-0.1c1.1,0.2,2.2,0.6,3.1,1.2
	c1,0.6,1.8,1.4,2.4,2.4c0.6,0.9,1,2,1.2,3.1c2,8.6-4.1,23.8,0,28.4c4.1,4.6,38.5,13.2,30.4,35s-44.6,7.2-51.7-3.1
	c-7.1-10.2-13.5-21.3-4.7-38C201.3,182.3,189.1,183.4,189.1,183.4z"/>
<path class="st10" d="M69,390c-2.5-16.9-8.6-37.6-17.4-51.4c-4.5-7.6-10.5-14.2-17.6-19.5c-1,1.9-2.3,3.7-3.7,5.3
	c0.6-2.5,0.7-5,0.4-7.5c-7.6-4.8-14.6-6.6-18.5-5.4c-5.4,1.5-5.6,7.9,0.8,19.4c4.6,2.6,9.8,3.7,15,3c-3.9,1.2-7.8,2-11.9,2.3
	c3.5,5.4,7.3,10.6,11.4,15.7c18.8,25.6,25.6,44.2,29.2,56c3.6,11.7,3.6,16.7,3.6,16.8c3.6-1.6,7.2-3.1,10.9-4.5
	C71.3,410,70.5,400,69,390z"/>
<radialGradient id="SVGID_1_" cx="-1593.2865" cy="3.22" r="1" gradientTransform="matrix(183.853 0 0 183.853 292953.0625 -358.5464)" gradientUnits="userSpaceOnUse">
	<stop  offset="0" style="stop-color:#FFFFFF"/>
	<stop  offset="0.33" style="stop-color:#CBD5FF"/>
	<stop  offset="0.62" style="stop-color:#A2B4FF"/>
	<stop  offset="0.86" style="stop-color:#89A0FF"/>
	<stop  offset="1" style="stop-color:#8099FF"/>
</radialGradient>
<path class="st11" d="M64.9,422.2c-0.2,0-0.5-0.1-0.6-0.3c-0.2-0.2-0.3-0.4-0.3-0.6c-1.1-65.4-41.4-97.2-41.8-97.6
	c-0.1-0.1-0.2-0.2-0.3-0.3c-0.1-0.1-0.1-0.2-0.1-0.3c0-0.1,0-0.2,0-0.4c0-0.1,0.1-0.2,0.2-0.3c0.1-0.1,0.2-0.2,0.3-0.2
	c0.1-0.1,0.2-0.1,0.4-0.1c0.1,0,0.2,0,0.4,0.1c0.1,0,0.2,0.1,0.3,0.2c0.4,0.3,41.4,32.8,42.5,99c0,0.1,0,0.2-0.1,0.3
	c0,0.1-0.1,0.2-0.2,0.3c-0.1,0.1-0.2,0.2-0.3,0.2C65.1,422.2,65,422.2,64.9,422.2L64.9,422.2z"/>
<radialGradient id="SVGID_00000047022154274502634590000011413780160398833830_" cx="-1600.449" cy="2.6551" r="1" gradientTransform="matrix(1032.84 0 0 222.968 1653117.625 -298.9919)" gradientUnits="userSpaceOnUse">
	<stop  offset="0" style="stop-color:#FFFFFF"/>
	<stop  offset="0.33" style="stop-color:#CBD5FF"/>
	<stop  offset="0.62" style="stop-color:#A2B4FF"/>
	<stop  offset="0.86" style="stop-color:#89A0FF"/>
	<stop  offset="1" style="stop-color:#8099FF"/>
</radialGradient>
<path style="fill:url(#SVGID_00000047022154274502634590000011413780160398833830_);" d="M37.6,339.9h-0.2c-2.6-0.4-5.3-0.5-7.9-0.1
	c-0.1,0-0.2,0-0.4,0c-0.1,0-0.2-0.1-0.3-0.2c-0.1-0.1-0.2-0.2-0.2-0.3s-0.1-0.2-0.1-0.3c0-0.2,0-0.5,0.2-0.7
	c0.1-0.2,0.4-0.3,0.6-0.3c2.8-0.4,5.7-0.3,8.5,0.1c0.2,0,0.5,0.1,0.6,0.3c0.1,0.2,0.2,0.4,0.2,0.7s-0.2,0.5-0.3,0.6
	C38.1,339.9,37.8,340,37.6,339.9L37.6,339.9z"/>
<radialGradient id="SVGID_00000000202543079978366680000016848717111534488456_" cx="-1596.9034" cy="0.6662" r="1" gradientTransform="matrix(314.331 0 0 888.758 502015.625 -441.8311)" gradientUnits="userSpaceOnUse">
	<stop  offset="0" style="stop-color:#FFFFFF"/>
	<stop  offset="0.33" style="stop-color:#CBD5FF"/>
	<stop  offset="0.62" style="stop-color:#A2B4FF"/>
	<stop  offset="0.86" style="stop-color:#89A0FF"/>
	<stop  offset="1" style="stop-color:#8099FF"/>
</radialGradient>
<path style="fill:url(#SVGID_00000000202543079978366680000016848717111534488456_);" d="M35.6,337.2c-0.2,0-0.4-0.1-0.6-0.2
	c-0.2-0.1-0.3-0.3-0.3-0.5c-0.4-2.5,0.1-5.1,1.2-7.4c0.1-0.1,0.1-0.2,0.2-0.3c0.1-0.1,0.2-0.1,0.3-0.2c0.1,0,0.2,0,0.4,0
	c0.1,0,0.2,0.1,0.4,0.1c0.1,0.1,0.2,0.1,0.3,0.2s0.1,0.2,0.2,0.3c0,0.1,0,0.2,0,0.4c0,0.1-0.1,0.2-0.2,0.3c-1,1.9-1.3,4.1-1,6.2
	c0,0.1,0,0.2,0,0.3c0,0.1-0.1,0.2-0.2,0.3c-0.1,0.1-0.2,0.2-0.3,0.2c-0.1,0.1-0.2,0.1-0.3,0.1L35.6,337.2z"/>
<radialGradient id="SVGID_00000124154524304705886450000015647449230905215111_" cx="-1600.8804" cy="1.6844" r="1" gradientTransform="matrix(1430.95 0 0 351.473 2290924.75 -315.0757)" gradientUnits="userSpaceOnUse">
	<stop  offset="0" style="stop-color:#FFFFFF"/>
	<stop  offset="0.33" style="stop-color:#CBD5FF"/>
	<stop  offset="0.62" style="stop-color:#A2B4FF"/>
	<stop  offset="0.86" style="stop-color:#89A0FF"/>
	<stop  offset="1" style="stop-color:#8099FF"/>
</radialGradient>
<path style="fill:url(#SVGID_00000124154524304705886450000015647449230905215111_);" d="M45.2,350.9c-0.1,0-0.3,0-0.4-0.1
	c-4.6-2.3-11.6-1.3-11.6-1.3c-0.2,0-0.5,0-0.7-0.2c-0.2-0.1-0.3-0.4-0.3-0.6s0-0.5,0.2-0.7c0.1-0.2,0.3-0.3,0.6-0.3
	s7.6-1.1,12.7,1.6c0.1,0.1,0.2,0.1,0.3,0.2s0.1,0.2,0.2,0.3c0,0.1,0,0.2,0,0.3s0,0.2-0.1,0.3c-0.1,0.1-0.2,0.3-0.3,0.3
	S45.3,350.9,45.2,350.9z"/>
<radialGradient id="SVGID_00000134223895652686656200000011324698156768923570_" cx="-1597.7083" cy="0.4903" r="1" gradientTransform="matrix(373.276 0 0 1207.39 596462.6875 -490.1465)" gradientUnits="userSpaceOnUse">
	<stop  offset="0" style="stop-color:#FFFFFF"/>
	<stop  offset="0.33" style="stop-color:#CBD5FF"/>
	<stop  offset="0.62" style="stop-color:#A2B4FF"/>
	<stop  offset="0.86" style="stop-color:#89A0FF"/>
	<stop  offset="1" style="stop-color:#8099FF"/>
</radialGradient>
<path style="fill:url(#SVGID_00000134223895652686656200000011324698156768923570_);" d="M48.2,356c-0.2,0-0.4-0.1-0.6-0.2
	c-0.2-0.1-0.3-0.3-0.3-0.5c-0.5-3.6,0.1-7.3,1.8-10.5c0.1-0.2,0.3-0.4,0.6-0.4c0.2-0.1,0.5,0,0.7,0.1s0.3,0.3,0.4,0.6
	c0.1,0.2,0,0.5-0.1,0.7c-1.4,2.9-2,6.2-1.5,9.4c0,0.1,0,0.2,0,0.3c0,0.1-0.1,0.2-0.1,0.3c-0.1,0.1-0.2,0.2-0.3,0.2
	c-0.1,0.1-0.2,0.1-0.3,0.1h-0.3V356z"/>
<radialGradient id="SVGID_00000103240770483031676910000010522041005844418215_" cx="-1600.9292" cy="1.6282" r="1" gradientTransform="matrix(1496 0 0 363.582 2395152 -288.8511)" gradientUnits="userSpaceOnUse">
	<stop  offset="0" style="stop-color:#FFFFFF"/>
	<stop  offset="0.33" style="stop-color:#CBD5FF"/>
	<stop  offset="0.62" style="stop-color:#A2B4FF"/>
	<stop  offset="0.86" style="stop-color:#89A0FF"/>
	<stop  offset="1" style="stop-color:#8099FF"/>
</radialGradient>
<path style="fill:url(#SVGID_00000103240770483031676910000010522041005844418215_);" d="M58,379.6c-0.1,0-0.3,0-0.4,0
	c-4.8-2.5-12.2-1.5-12.2-1.5c-0.2,0-0.5,0-0.7-0.2c-0.2-0.1-0.3-0.4-0.4-0.6c0-0.2,0-0.5,0.2-0.7c0.1-0.2,0.3-0.3,0.6-0.3
	s8-1.1,13.3,1.6c0.2,0.1,0.3,0.2,0.4,0.4c0.1,0.2,0.1,0.4,0.1,0.6s-0.2,0.4-0.3,0.5C58.4,379.6,58.2,379.7,58,379.6L58,379.6z"/>
<radialGradient id="SVGID_00000178920247909316936900000006822015856867995062_" cx="-1597.7408" cy="0.4696" r="1" gradientTransform="matrix(376.136 0 0 1260.78 601051.8125 -484.418)" gradientUnits="userSpaceOnUse">
	<stop  offset="0" style="stop-color:#FFFFFF"/>
	<stop  offset="0.33" style="stop-color:#CBD5FF"/>
	<stop  offset="0.62" style="stop-color:#A2B4FF"/>
	<stop  offset="0.86" style="stop-color:#89A0FF"/>
	<stop  offset="1" style="stop-color:#8099FF"/>
</radialGradient>
<path style="fill:url(#SVGID_00000178920247909316936900000006822015856867995062_);" d="M55.4,372.9c-0.2,0-0.4-0.1-0.6-0.2
	c-0.2-0.1-0.3-0.3-0.3-0.5c-0.6-3.8,0-7.7,1.8-11.1c0.1-0.2,0.3-0.3,0.5-0.4s0.5,0,0.7,0.1s0.3,0.3,0.4,0.5c0.1,0.2,0,0.5-0.1,0.7
	c-1.5,3.1-2,6.5-1.5,9.9c0,0.2,0,0.5-0.2,0.7c-0.1,0.2-0.3,0.3-0.6,0.4h-0.1V372.9z"/>
<linearGradient id="SVGID_00000013155677397974633250000002173807511795672458_" gradientUnits="userSpaceOnUse" x1="373.2084" y1="1028.7927" x2="2628.3594" y2="1663.0623" gradientTransform="matrix(1 0 0 1 0 -592)">
	<stop  offset="0" style="stop-color:#67DD72"/>
	<stop  offset="1" style="stop-color:#4C5FC2"/>
</linearGradient>
<path style="fill:url(#SVGID_00000013155677397974633250000002173807511795672458_);" d="M90.7,386.9c2.7-21.7,2.5-49.3-3.6-69.3
	c-3-10.9-8-21.2-14.9-30.2c-1.9,2-4.1,3.7-6.4,5.2c1.6-2.8,2.6-5.9,3.2-9.1c-7.7-8.6-15.8-13.2-21-13.2c-7.2,0-9.6,7.8-5.7,24.1
	c4.7,4.8,10.8,8,17.5,9c-5.2,0.2-10.4-0.3-15.4-1.3c2,6.7,4.9,14.3,8.5,23.3c14.4,38,16.2,63.4,16.5,79.1c0,15.7-1.4,21.8-1.4,21.9
	c5-0.7,10-1.3,15-1.8C86.6,412.3,89.2,399.7,90.7,386.9z"/>
<radialGradient id="SVGID_00000058557153305213512130000002392615263066142626_" cx="-1601.401" cy="4.183631e-02" r="1" gradientTransform="matrix(2674.3999 0 0 14120.5996 4283053.5 -3139.0938)" gradientUnits="userSpaceOnUse">
	<stop  offset="0" style="stop-color:#FFFFFF"/>
	<stop  offset="0.33" style="stop-color:#CBD5FF"/>
	<stop  offset="0.62" style="stop-color:#A2B4FF"/>
	<stop  offset="0.86" style="stop-color:#89A0FF"/>
	<stop  offset="1" style="stop-color:#8099FF"/>
</radialGradient>
<path style="fill:url(#SVGID_00000058557153305213512130000002392615263066142626_);" d="M74.7,424.9h-0.2c-0.2-0.1-0.4-0.2-0.5-0.4
	c-0.1-0.2-0.1-0.4-0.1-0.7c21.4-81-17.2-134.5-17.6-135c-0.1-0.1-0.1-0.2-0.2-0.3c0-0.1,0-0.2,0-0.4c0-0.1,0.1-0.2,0.1-0.3
	c0.1-0.1,0.1-0.2,0.2-0.3c0.2-0.1,0.4-0.2,0.7-0.2c0.2,0,0.4,0.2,0.6,0.4c0.4,0.5,39.5,54.7,17.9,136.5c-0.1,0.2-0.2,0.4-0.3,0.5
	C75.1,424.8,74.9,424.9,74.7,424.9z"/>
<radialGradient id="SVGID_00000117650390310045194190000005199093336993034382_" cx="-1600.679" cy="1.2086" r="1" gradientTransform="matrix(1212.65 0 0 489.838 1941217.75 -381.002)" gradientUnits="userSpaceOnUse">
	<stop  offset="0" style="stop-color:#FFFFFF"/>
	<stop  offset="0.33" style="stop-color:#CBD5FF"/>
	<stop  offset="0.62" style="stop-color:#A2B4FF"/>
	<stop  offset="0.86" style="stop-color:#89A0FF"/>
	<stop  offset="1" style="stop-color:#8099FF"/>
</radialGradient>
<path style="fill:url(#SVGID_00000117650390310045194190000005199093336993034382_);" d="M69.8,314.1c-0.1,0-0.3,0-0.4-0.1
	c-3.1-1.4-6.4-2.4-9.7-2.9c-0.2,0-0.4-0.2-0.6-0.3c-0.1-0.2-0.2-0.4-0.2-0.7c0-0.2,0.2-0.4,0.4-0.6c0.2-0.1,0.4-0.2,0.7-0.2
	c3.6,0.5,7,1.6,10.3,3.1c0.1,0.1,0.2,0.1,0.3,0.2c0.1,0.1,0.1,0.2,0.2,0.3c0,0.1,0,0.2,0,0.3c0,0.1,0,0.2-0.1,0.3
	c-0.1,0.1-0.2,0.3-0.3,0.3C70.1,314,70,314.1,69.8,314.1z"/>
<radialGradient id="SVGID_00000052792546479961054760000018246309595228403887_" cx="-1599.1685" cy="0.59" r="1" gradientTransform="matrix(565.762 0 0 1003.3 904860.6875 -493.1279)" gradientUnits="userSpaceOnUse">
	<stop  offset="0" style="stop-color:#FFFFFF"/>
	<stop  offset="0.33" style="stop-color:#CBD5FF"/>
	<stop  offset="0.62" style="stop-color:#A2B4FF"/>
	<stop  offset="0.86" style="stop-color:#89A0FF"/>
	<stop  offset="1" style="stop-color:#8099FF"/>
</radialGradient>
<path style="fill:url(#SVGID_00000052792546479961054760000018246309595228403887_);" d="M68.2,310L68.2,310c-0.2,0-0.3-0.1-0.4-0.1
	c-0.1-0.1-0.2-0.1-0.3-0.2c-0.1-0.1-0.1-0.2-0.1-0.3c0-0.1,0-0.2,0-0.3c0.4-3.2,1.8-6.1,4-8.5c0.1-0.1,0.2-0.2,0.3-0.2
	c0.1,0,0.2-0.1,0.3-0.1s0.2,0,0.3,0.1c0.1,0,0.2,0.1,0.3,0.2c0.1,0.1,0.2,0.2,0.2,0.3c0,0.1,0.1,0.2,0.1,0.3c0,0.1,0,0.2-0.1,0.3
	c0,0.1-0.1,0.2-0.2,0.3c-1.9,2.1-3.1,4.7-3.4,7.4c0,0.2-0.1,0.4-0.3,0.6C68.7,309.9,68.5,310,68.2,310z"/>
<radialGradient id="SVGID_00000116228276727585134620000006145117048269655457_" cx="-1601.0385" cy="0.7362" r="1" gradientTransform="matrix(1665.9301 0 0 804.188 2667409 -430.9453)" gradientUnits="userSpaceOnUse">
	<stop  offset="0" style="stop-color:#FFFFFF"/>
	<stop  offset="0.33" style="stop-color:#CBD5FF"/>
	<stop  offset="0.62" style="stop-color:#A2B4FF"/>
	<stop  offset="0.86" style="stop-color:#89A0FF"/>
	<stop  offset="1" style="stop-color:#8099FF"/>
</radialGradient>
<path style="fill:url(#SVGID_00000116228276727585134620000006145117048269655457_);" d="M75.2,330.3c-0.2,0-0.5-0.1-0.6-0.2
	c-4.9-4.6-13.9-5.8-13.9-5.8c-0.2,0-0.4-0.2-0.6-0.3c-0.1-0.2-0.2-0.4-0.2-0.7c0-0.1,0-0.2,0.1-0.3c0.1-0.1,0.1-0.2,0.2-0.3
	s0.2-0.1,0.3-0.2c0.1,0,0.2,0,0.4,0c0.4,0,9.7,1.3,15,6.3c0.1,0.1,0.1,0.2,0.2,0.3c0,0.1,0.1,0.2,0.1,0.3s0,0.2-0.1,0.3
	c0,0.1-0.1,0.2-0.2,0.3c-0.1,0.1-0.2,0.2-0.3,0.2S75.3,330.3,75.2,330.3z"/>
<radialGradient id="SVGID_00000049913563896910224770000012546617601149401243_" cx="-1599.855" cy="0.4264" r="1" gradientTransform="matrix(746.835 0 0 1388.4 1194962.875 -546.7441)" gradientUnits="userSpaceOnUse">
	<stop  offset="0" style="stop-color:#FFFFFF"/>
	<stop  offset="0.33" style="stop-color:#CBD5FF"/>
	<stop  offset="0.62" style="stop-color:#A2B4FF"/>
	<stop  offset="0.86" style="stop-color:#89A0FF"/>
	<stop  offset="1" style="stop-color:#8099FF"/>
</radialGradient>
<path style="fill:url(#SVGID_00000049913563896910224770000012546617601149401243_);" d="M77.2,337.5L77.2,337.5
	c-0.3,0-0.5-0.2-0.7-0.4c-0.1-0.2-0.2-0.4-0.2-0.7c0.6-4.6,2.6-8.9,5.7-12.2c0.1-0.1,0.2-0.2,0.3-0.2c0.1,0,0.2-0.1,0.3-0.1
	c0.1,0,0.2,0,0.3,0.1c0.1,0,0.2,0.1,0.3,0.2c0.1,0.1,0.2,0.2,0.2,0.3s0.1,0.2,0.1,0.3s0,0.2-0.1,0.3c0,0.1-0.1,0.2-0.2,0.3
	c-2.8,3.1-4.7,7-5.2,11.2c0,0.2-0.1,0.4-0.3,0.6S77.5,337.5,77.2,337.5z"/>
<radialGradient id="SVGID_00000021092017901815370590000013331439329649793445_" cx="-1601.082" cy="0.7086" r="1" gradientTransform="matrix(1744.99 0 0 835.472 2794074.5 -397.9111)" gradientUnits="userSpaceOnUse">
	<stop  offset="0" style="stop-color:#FFFFFF"/>
	<stop  offset="0.33" style="stop-color:#CBD5FF"/>
	<stop  offset="0.62" style="stop-color:#A2B4FF"/>
	<stop  offset="0.86" style="stop-color:#89A0FF"/>
	<stop  offset="1" style="stop-color:#8099FF"/>
</radialGradient>
<path style="fill:url(#SVGID_00000021092017901815370590000013331439329649793445_);" d="M81.1,370c-0.2,0-0.5-0.1-0.6-0.2
	c-5.1-4.8-14.6-6.1-14.7-6.1c-0.2,0-0.4-0.2-0.6-0.3c-0.1-0.2-0.2-0.4-0.2-0.7c0-0.2,0.2-0.4,0.3-0.6c0.2-0.1,0.4-0.2,0.7-0.2
	c0.4,0,10.2,1.4,15.7,6.6c0.1,0.1,0.1,0.2,0.2,0.3c0,0.1,0.1,0.2,0.1,0.3c0,0.1,0,0.2-0.1,0.3c0,0.1-0.1,0.2-0.2,0.3
	c-0.1,0.1-0.2,0.2-0.3,0.2S81.2,369.9,81.1,370z"/>
<radialGradient id="SVGID_00000154393709860479556180000018418144732153641900_" cx="-1599.9314" cy="0.408" r="1" gradientTransform="matrix(774.432 0 0 1450.88 1239178.5 -536.4238)" gradientUnits="userSpaceOnUse">
	<stop  offset="0" style="stop-color:#FFFFFF"/>
	<stop  offset="0.33" style="stop-color:#CBD5FF"/>
	<stop  offset="0.62" style="stop-color:#A2B4FF"/>
	<stop  offset="0.86" style="stop-color:#89A0FF"/>
	<stop  offset="1" style="stop-color:#8099FF"/>
</radialGradient>
<path style="fill:url(#SVGID_00000154393709860479556180000018418144732153641900_);" d="M80.3,360.9L80.3,360.9
	c-0.3,0-0.5-0.2-0.7-0.3c-0.1-0.2-0.2-0.4-0.2-0.7c0.6-4.8,2.7-9.3,6-12.9c0.1-0.1,0.2-0.2,0.3-0.2c0.1,0,0.2-0.1,0.3-0.1
	s0.2,0,0.3,0.1c0.1,0,0.2,0.1,0.3,0.2c0.1,0.1,0.2,0.2,0.2,0.3c0,0.1,0.1,0.2,0.1,0.3c0,0.1,0,0.2-0.1,0.3c0,0.1-0.1,0.2-0.2,0.3
	c-3,3.3-4.9,7.4-5.5,11.8c0,0.2-0.1,0.4-0.3,0.6C80.7,360.8,80.5,360.9,80.3,360.9z"/>
<path class="st26" d="M84.6,390c2.6-16.9,8.6-37.6,17.4-51.4c4.5-7.6,10.5-14.2,17.6-19.5c1,1.9,2.3,3.7,3.7,5.3
	c-0.6-2.5-0.7-5-0.4-7.5c7.6-4.8,14.7-6.6,18.6-5.5c5.4,1.5,5.6,7.9-0.8,19.4c-4.6,2.6-9.8,3.7-15,3c3.9,1.2,7.8,2,11.9,2.3
	c-3.5,5.4-7.2,10.6-11.3,15.7c-18.9,25.6-25.7,44.3-29.3,56c-3.6,11.7-3.6,16.7-3.6,16.8c-3.6-1.6-7.3-3.1-11-4.5
	C82.3,410,83,400,84.6,390z"/>
<radialGradient id="SVGID_00000161592130511738916600000010961420677597734046_" cx="-1601.6458" cy="5.761414e-02" r="1" gradientTransform="matrix(4522.3901 0 0 10275.7998 7243711 -2332.5469)" gradientUnits="userSpaceOnUse">
	<stop  offset="0" style="stop-color:#FFFFFF"/>
	<stop  offset="0.33" style="stop-color:#CBD5FF"/>
	<stop  offset="0.62" style="stop-color:#A2B4FF"/>
	<stop  offset="0.86" style="stop-color:#89A0FF"/>
	<stop  offset="1" style="stop-color:#8099FF"/>
</radialGradient>
<path style="fill:url(#SVGID_00000161592130511738916600000010961420677597734046_);" d="M88.7,422.2c-0.1,0-0.2,0-0.3-0.1
	c-0.1,0-0.2-0.1-0.3-0.2c-0.1-0.1-0.1-0.2-0.2-0.3c0-0.1-0.1-0.2-0.1-0.3c1.2-66.2,42.2-98.7,42.6-99c0.2-0.1,0.4-0.2,0.7-0.2
	c0.2,0,0.4,0.1,0.6,0.3c0.1,0.1,0.1,0.2,0.2,0.3c0,0.1,0,0.2,0,0.3c0,0.1-0.1,0.2-0.1,0.3c-0.1,0.1-0.1,0.2-0.2,0.3
	c-0.4,0.3-40.7,32.2-41.8,97.6c0,0.1,0,0.2-0.1,0.3c-0.1,0.1-0.1,0.2-0.2,0.3c-0.1,0.1-0.2,0.1-0.3,0.2
	C88.9,422.2,88.8,422.2,88.7,422.2z"/>
<radialGradient id="SVGID_00000154390859781660922580000003571605037716160142_" cx="-1600.449" cy="2.6556" r="1" gradientTransform="matrix(1032.84 0 0 222.93 1653204 -299.0049)" gradientUnits="userSpaceOnUse">
	<stop  offset="0" style="stop-color:#FFFFFF"/>
	<stop  offset="0.33" style="stop-color:#CBD5FF"/>
	<stop  offset="0.62" style="stop-color:#A2B4FF"/>
	<stop  offset="0.86" style="stop-color:#89A0FF"/>
	<stop  offset="1" style="stop-color:#8099FF"/>
</radialGradient>
<path style="fill:url(#SVGID_00000154390859781660922580000003571605037716160142_);" d="M116,339.9c-0.2,0-0.5,0-0.7-0.2
	c-0.2-0.1-0.3-0.4-0.3-0.6s0-0.5,0.2-0.7c0.1-0.2,0.4-0.3,0.6-0.3c2.8-0.5,5.7-0.5,8.5-0.1c0.2,0,0.4,0.2,0.6,0.3
	c0.1,0.2,0.2,0.4,0.2,0.7c0,0.2-0.2,0.4-0.3,0.6c-0.2,0.1-0.4,0.2-0.7,0.2c-2.6-0.3-5.2-0.3-7.8,0.1H116z"/>
<radialGradient id="SVGID_00000173130055487410633850000014891927308017065622_" cx="-1596.746" cy="0.68" r="1" gradientTransform="matrix(304.908 0 0 870.711 487000.6875 -438.0479)" gradientUnits="userSpaceOnUse">
	<stop  offset="0" style="stop-color:#FFFFFF"/>
	<stop  offset="0.33" style="stop-color:#CBD5FF"/>
	<stop  offset="0.62" style="stop-color:#A2B4FF"/>
	<stop  offset="0.86" style="stop-color:#89A0FF"/>
	<stop  offset="1" style="stop-color:#8099FF"/>
</radialGradient>
<path style="fill:url(#SVGID_00000173130055487410633850000014891927308017065622_);" d="M118,337.2L118,337.2
	c-0.2,0-0.3-0.1-0.4-0.1c-0.1-0.1-0.2-0.1-0.3-0.2c-0.1-0.1-0.1-0.2-0.1-0.3c0-0.1,0-0.2,0-0.3c0.3-2.1,0-4.3-1-6.2
	c-0.1-0.2-0.1-0.4,0-0.6s0.2-0.4,0.4-0.5c0.2-0.1,0.4-0.1,0.6-0.1s0.4,0.2,0.5,0.3c1.2,2.3,1.6,4.8,1.2,7.4c0,0.2-0.1,0.4-0.3,0.5
	C118.4,337.1,118.2,337.2,118,337.2z"/>
<radialGradient id="SVGID_00000138547756779126269010000000780691224175811995_" cx="-1600.8811" cy="1.6568" r="1" gradientTransform="matrix(1431.76 0 0 357.317 2292298 -316.2671)" gradientUnits="userSpaceOnUse">
	<stop  offset="0" style="stop-color:#FFFFFF"/>
	<stop  offset="0.33" style="stop-color:#CBD5FF"/>
	<stop  offset="0.62" style="stop-color:#A2B4FF"/>
	<stop  offset="0.86" style="stop-color:#89A0FF"/>
	<stop  offset="1" style="stop-color:#8099FF"/>
</radialGradient>
<path style="fill:url(#SVGID_00000138547756779126269010000000780691224175811995_);" d="M108.5,350.9c-0.2,0-0.3,0-0.5-0.1
	c-0.1-0.1-0.3-0.2-0.3-0.4c-0.1-0.2-0.1-0.5-0.1-0.7c0.1-0.2,0.2-0.4,0.4-0.5c5.1-2.6,12.4-1.6,12.7-1.6c0.2,0,0.4,0.2,0.6,0.3
	c0.1,0.2,0.2,0.4,0.2,0.7c0,0.2-0.2,0.4-0.4,0.6c-0.2,0.1-0.4,0.2-0.7,0.2c0,0-7-1-11.6,1.4C108.7,350.9,108.6,350.9,108.5,350.9z"
	/>
<radialGradient id="SVGID_00000157265923289851355250000003695986821493127865_" cx="-1597.7089" cy="0.4908" r="1" gradientTransform="matrix(373.33 0 0 1206.11 596604.9375 -489.916)" gradientUnits="userSpaceOnUse">
	<stop  offset="0" style="stop-color:#FFFFFF"/>
	<stop  offset="0.33" style="stop-color:#CBD5FF"/>
	<stop  offset="0.62" style="stop-color:#A2B4FF"/>
	<stop  offset="0.86" style="stop-color:#89A0FF"/>
	<stop  offset="1" style="stop-color:#8099FF"/>
</radialGradient>
<path style="fill:url(#SVGID_00000157265923289851355250000003695986821493127865_);" d="M105.4,356L105.4,356
	c-0.3,0-0.6-0.2-0.7-0.4c-0.1-0.2-0.2-0.4-0.2-0.7c0.5-3.2-0.1-6.5-1.5-9.4c-0.1-0.2-0.2-0.5-0.1-0.7s0.2-0.4,0.4-0.6
	c0.1-0.1,0.2-0.1,0.3-0.1c0.1,0,0.2,0,0.3,0c0.1,0,0.2,0.1,0.3,0.2c0.1,0.1,0.2,0.2,0.2,0.3c1.7,3.2,2.3,6.9,1.8,10.5
	c0,0.2-0.1,0.4-0.3,0.5C105.8,355.9,105.6,356,105.4,356z"/>
<radialGradient id="SVGID_00000087405019967540764200000017536196958833309589_" cx="-1600.9305" cy="1.6181" r="1" gradientTransform="matrix(1497.9399 0 0 365.867 2398310.5 -289.4189)" gradientUnits="userSpaceOnUse">
	<stop  offset="0" style="stop-color:#FFFFFF"/>
	<stop  offset="0.33" style="stop-color:#CBD5FF"/>
	<stop  offset="0.62" style="stop-color:#A2B4FF"/>
	<stop  offset="0.86" style="stop-color:#89A0FF"/>
	<stop  offset="1" style="stop-color:#8099FF"/>
</radialGradient>
<path style="fill:url(#SVGID_00000087405019967540764200000017536196958833309589_);" d="M95.6,379.6c-0.2,0-0.3,0-0.5-0.1
	c-0.1-0.1-0.3-0.2-0.3-0.4c-0.1-0.2-0.1-0.5-0.1-0.7c0.1-0.2,0.2-0.4,0.4-0.5c5.4-2.8,13-1.7,13.3-1.6c0.2,0,0.4,0.2,0.6,0.3
	c0.1,0.2,0.2,0.4,0.2,0.7c0,0.2-0.2,0.4-0.4,0.6c-0.2,0.1-0.4,0.2-0.7,0.2c0,0-7.4-1-12.2,1.5C95.9,379.6,95.8,379.6,95.6,379.6z"/>
<radialGradient id="SVGID_00000145763165228890160530000005866077032908638387_" cx="-1597.7285" cy="0.4696" r="1" gradientTransform="matrix(375.042 0 0 1260.78 599340.375 -484.418)" gradientUnits="userSpaceOnUse">
	<stop  offset="0" style="stop-color:#FFFFFF"/>
	<stop  offset="0.33" style="stop-color:#CBD5FF"/>
	<stop  offset="0.62" style="stop-color:#A2B4FF"/>
	<stop  offset="0.86" style="stop-color:#89A0FF"/>
	<stop  offset="1" style="stop-color:#8099FF"/>
</radialGradient>
<path style="fill:url(#SVGID_00000145763165228890160530000005866077032908638387_);" d="M98.2,372.9H98c-0.2,0-0.4-0.2-0.6-0.4
	c-0.1-0.2-0.2-0.4-0.2-0.7c0.5-3.4-0.1-6.9-1.6-9.9c-0.1-0.2-0.1-0.4-0.1-0.7c0.1-0.2,0.2-0.4,0.4-0.5c0.2-0.1,0.4-0.2,0.7-0.1
	c0.2,0.1,0.4,0.2,0.5,0.4c1.7,3.4,2.4,7.3,1.8,11.1c0,0.2-0.1,0.4-0.3,0.5C98.6,372.8,98.4,372.9,98.2,372.9z"/>
<path class="st34" d="M96.5,486.7h-41c-1.3,0-2.6-0.5-3.6-1.3c-1-0.9-1.7-2-1.9-3.4l-10-57.9c-0.1-0.8-0.1-1.6,0.1-2.4
	c0.2-0.8,0.6-1.5,1.1-2.2c0.5-0.6,1.2-1.1,1.9-1.5c0.7-0.3,1.6-0.5,2.4-0.5h61.1c0.8,0,1.6,0.2,2.4,0.5c0.7,0.3,1.4,0.9,1.9,1.5
	s0.9,1.4,1.1,2.2c0.2,0.8,0.3,1.6,0.1,2.4l-10,57.9c-0.2,1.3-0.9,2.5-1.9,3.3C99.1,486.3,97.9,486.7,96.5,486.7z"/>
<path class="st35" d="M112.4,409.6H39.6c-3.1,0-5.7,2.5-5.7,5.7v10.6c0,3.1,2.5,5.7,5.7,5.7h72.8c3.1,0,5.7-2.5,5.7-5.7v-10.6
	C118.1,412.2,115.5,409.6,112.4,409.6z"/>
<path class="st36" d="M112.4,409.6H99.6c-3.4,16.3-8.3,32.4-16.5,47c-6.6,11.6-15.4,21.9-25.9,30.1h39.4c1.3,0,2.6-0.5,3.6-1.3
	c1-0.9,1.7-2,1.9-3.4l8.7-50.5h1.5c1.5,0,2.9-0.6,4-1.7s1.7-2.5,1.7-4v-10.5c0-0.8-0.1-1.5-0.4-2.2s-0.7-1.3-1.2-1.9
	c-0.5-0.5-1.2-1-1.8-1.3C113.9,409.8,113.2,409.6,112.4,409.6z"/>
<circle class="st37" cx="184.2" cy="182.6" r="1.5"/>
<g>
	<path class="st9" d="M186,179.5c-0.2,0.2-0.4,0.3-0.6,0.3c-0.2,0-0.3-0.1-0.5-0.2c-0.5-0.4-1.7-1.2-2.8-1.6c0-0.5,0.1-1,0.1-1.5
		c1.8,0.4,3.4,1.7,3.7,1.9C186.2,178.7,186.3,179.2,186,179.5z"/>
</g>
<path class="st38" d="M186.2,190.9c0,1.6-2.3,5.2-5.9,5.9c-0.3-0.8-0.6-1.6-0.7-2.4c-0.2-0.7-0.3-1.3-0.4-2c2.2,0,3.8-0.5,5-0.9
	C185.6,190.9,186.2,190.4,186.2,190.9z"/>
<path class="st39" d="M184.2,191.5c-0.2,1.5-2.2,2.7-4.6,2.9c-0.2-0.7-0.3-1.3-0.4-2C181.4,192.4,183,192,184.2,191.5z"/>
</svg>
